<svg width="13.750137" height="7.500623" viewBox="0 0 13.7501 7.50062" fill="none" xmlns="http://www.w3.org/2000/svg" xmlns:xlink="http://www.w3.org/1999/xlink">
    <desc>
        Created with Pixso.
    </desc>
    <defs/>
    <path id="path" d="M13.56 1.06L7.31 7.31C7.25 7.37 7.19 7.42 7.11 7.45C7.03 7.48 6.95 7.5 6.87 7.5C6.79 7.5 6.71 7.48 6.63 7.45C6.55 7.42 6.49 7.37 6.43 7.31L0.18 1.06C0.12 1 0.07 0.94 0.04 0.86C0.01 0.78 -1.53e-5 0.7 0 0.62C1.52e-5 0.54 0.01 0.46 0.04 0.38C0.07 0.3 0.12 0.24 0.18 0.18C0.24 0.12 0.3 0.07 0.38 0.04C0.46 0.01 0.54 1.9e-5 0.62 0C0.7 -2.1e-5 0.78 0.01 0.86 0.04C0.94 0.07 1 0.12 1.06 0.18L6.87 5.99L12.68 0.18C12.74 0.12 12.8 0.07 12.88 0.04C12.96 0.01 13.04 9.34e-5 13.12 0C13.2 0 13.28 0.01 13.36 0.04C13.44 0.07 13.5 0.12 13.56 0.18C13.62 0.24 13.67 0.3 13.7 0.38C13.73 0.46 13.75 0.54 13.75 0.62C13.75 0.7 13.73 0.78 13.7 0.86C13.67 0.94 13.62 1 13.56 1.06Z" fill="#FFFFFF" fill-opacity="1.000000" fill-rule="nonzero"/>
</svg>
