<svg width="91.691422" height="16.054688" viewBox="0 0 91.6914 16.0547" fill=none xmlns="http://www.w3.org/2000/svg" xmlns:xlink="http://www.w3.org/1999/xlink">
    <desc>
        Created with Pixso.
    </desc>
    <defs/>
    <path id="workie" d="M29.16 15.35Q30.66 16.05 32.48 16.05Q34.31 16.05 35.81 15.35Q37.05 14.78 38.07 13.72Q39.05 12.71 39.6 11.51Q40.33 9.93 40.33 8.02Q40.33 6.09 39.59 4.5Q39.04 3.32 38.07 2.32Q37.05 1.27 35.81 0.69Q34.31 0 32.48 0Q30.66 0 29.16 0.69Q27.92 1.27 26.89 2.32Q25.93 3.32 25.38 4.5Q24.64 6.09 24.64 8.02Q24.64 9.93 25.36 11.51Q25.92 12.71 26.89 13.72Q27.92 14.78 29.16 15.35ZM46.13 0.31L46.13 15.81L47.24 15.81L47.24 9.42Q49.11 9.55 51.05 9.55Q53.86 13.43 54.68 14.32Q55.52 15.21 56.35 15.59Q57.2 15.96 58.54 15.98L58.56 15.24Q58.42 15.22 58.28 15.19Q56.83 14.91 55.59 13.62Q54.92 12.88 52.06 9.09Q53.09 8.34 53.9 7.15Q54.37 6.46 54.58 5.7Q54.72 5.14 54.72 4.53Q54.72 3.09 54.05 2.1Q53.74 1.64 53.28 1.28Q53.12 1.15 52.96 1.04Q51.6 0.14 49.64 0.14Q48.2 0.14 46.13 0.31ZM11.03 0.55L6.55 12.02Q5.92 13.58 5.8 14.06Q5.51 12.88 5.18 11.92L1.22 0.24L0 0.24L5.47 15.9L6.12 15.9L10.65 4.38Q11.18 3.09 11.3 2.68Q11.51 3.31 11.73 3.96Q11.88 4.41 15.89 15.9L16.53 15.9L21.96 0.24L20.8 0.24L16.82 12.11Q16.29 13.58 16.22 14.03L15.65 12.09L11.73 0.55L11.03 0.55ZM62.83 15.81L62.83 0.24L61.73 0.24L61.73 15.81L62.83 15.81ZM64.53 7.75L71.18 0.24L69.86 0.24L63.16 7.79Q64.22 9.09 66.34 11.53Q68.47 13.96 69.12 14.59Q69.33 14.79 69.55 14.97Q70.04 15.33 70.6 15.59Q71.44 15.96 72.79 15.98L72.81 15.24Q71.37 15.07 69.92 13.79Q68.47 12.52 64.53 7.75ZM76.31 0.24L76.31 15.81L77.41 15.81L77.41 0.24L76.31 0.24ZM84.17 0.24L84.17 15.81L91.69 15.81L91.69 14.8L85.28 14.8L85.28 7.79L90.84 7.79L90.84 6.86L85.28 6.86L85.28 1.2L91.45 1.2L91.45 0.24L84.17 0.24ZM29.6 1.6Q30.9 0.98 32.5 0.98Q34.12 0.98 35.43 1.62Q36.45 2.13 37.28 3.02Q38.01 3.8 38.46 4.72Q39.18 6.2 39.18 8.02Q39.18 9.86 38.45 11.34Q38 12.24 37.28 13.01Q36.46 13.89 35.46 14.39Q34.14 15.04 32.5 15.04Q30.88 15.04 29.58 14.41Q28.54 13.91 27.7 13.01Q26.96 12.23 26.51 11.31Q25.79 9.84 25.79 8.02Q25.79 6.22 26.5 4.75Q26.95 3.82 27.7 3.02Q28.55 2.11 29.6 1.6ZM52.47 7.38Q51.39 8.63 50.45 8.63Q48.96 8.63 47.24 8.51L47.24 1.2Q48.53 1.1 49.49 1.1Q51.29 1.1 52.42 1.96Q52.77 2.23 53.01 2.57Q53.55 3.34 53.55 4.48Q53.55 5.32 53.27 6.05Q53 6.76 52.47 7.38Z" fill="#FFFFFF" fill-opacity="1.000000" fill-rule="evenodd"/>
</svg>
