<svg width="20.000000" height="20.000000" viewBox="0 0 20 20" fill="none" xmlns="http://www.w3.org/2000/svg" xmlns:xlink="http://www.w3.org/1999/xlink">
    <desc>
        Created with Pixso.
    </desc>
    <defs/>
    <path id="path" d="M19.46 7.97L11.12 0.42C11.12 0.42 11.12 0.42 11.11 0.41C10.96 0.28 10.78 0.17 10.59 0.1C10.4 0.03 10.2 0 9.99 0C9.78 0 9.58 0.03 9.39 0.1C9.2 0.17 9.02 0.28 8.87 0.41L8.86 0.42L0.53 7.97C0.17 8.29 0 8.68 0 9.15L0 18.39C0 18.61 0.04 18.81 0.12 19.01C0.21 19.2 0.33 19.38 0.48 19.53C0.64 19.68 0.82 19.79 1.02 19.87C1.23 19.95 1.44 20 1.66 20L18.33 20C18.55 20 18.76 19.95 18.97 19.87C19.17 19.79 19.35 19.68 19.51 19.53C19.66 19.38 19.78 19.2 19.87 19.01C19.95 18.81 20 18.61 20 18.39L20 9.15C20 8.68 19.82 8.29 19.46 7.97ZM18.33 18.39L1.66 18.39L1.66 9.15L1.67 9.14L10 1.59L18.32 9.14L18.33 9.15L18.33 18.39Z" fill="#FFFFFF" fill-opacity="1.000000" fill-rule="nonzero"/>
</svg>
