<svg width="20.000000" height="20.001419" viewBox="0 0 20 20.0014" fill="none" xmlns="http://www.w3.org/2000/svg" xmlns:xlink="http://www.w3.org/1999/xlink">
    <desc>
        Created with Pixso.
    </desc>
    <defs/>
    <path id="path" d="M19.7 1.84C19.5 1.67 19.28 1.62 19.04 1.69L13.16 3.28L7.26 0.08C7.09 -0.01 6.92 -0.03 6.73 0.02L0.58 1.69C0.41 1.73 0.27 1.83 0.16 1.98C0.05 2.13 0 2.31 0 2.5L0 17.5C3.05e-5 17.62 0.02 17.75 0.07 17.86C0.12 17.98 0.2 18.07 0.29 18.15C0.38 18.23 0.49 18.28 0.6 18.31C0.72 18.34 0.84 18.34 0.95 18.3L6.83 16.71L12.73 19.91C12.84 19.97 12.95 20 13.07 20C13.14 20 13.2 19.99 13.26 19.97L19.41 18.3C19.58 18.26 19.72 18.16 19.83 18.01C19.94 17.86 20 17.69 20 17.5L20 2.5C20 2.23 19.9 2.01 19.7 1.84ZM7.69 2.18L12.3 4.68L12.3 17.82L7.69 15.32L7.69 2.18ZM1.53 3.15L6.15 1.9L6.15 15.18L1.53 16.43L1.53 3.15ZM18.46 16.85L13.84 18.1L13.84 4.81L18.46 3.56L18.46 16.85Z" fill="#FFFFFF" fill-opacity="1.000000" fill-rule="nonzero"/>
</svg>
