<svg width="20.001038" height="20.000122" viewBox="0 0 20.001 20.0001" fill="none" xmlns="http://www.w3.org/2000/svg" xmlns:xlink="http://www.w3.org/1999/xlink">
    <desc>
        Created with Pixso.
    </desc>
    <defs/>
    <path id="path" d="M19.86 0.99C19.8 0.84 19.72 0.7 19.63 0.58C19.53 0.46 19.42 0.35 19.3 0.26C19.17 0.17 19.04 0.11 18.89 0.06C18.75 0.02 18.61 -0.01 18.46 3.05e-5L1.53 3.05e-5C1.23 0 0.95 0.09 0.69 0.27C0.44 0.45 0.25 0.69 0.13 0.99C0 1.29 -0.03 1.6 0.02 1.93C0.06 2.25 0.19 2.54 0.4 2.78L6.92 10.33L6.92 18.33C6.92 18.64 6.99 18.92 7.14 19.18C7.28 19.45 7.48 19.65 7.73 19.8C7.98 19.94 8.25 20.01 8.53 19.99C8.81 19.98 9.07 19.89 9.31 19.72L12.39 17.49C12.6 17.34 12.77 17.14 12.89 16.89C13.01 16.65 13.07 16.38 13.07 16.11L13.07 10.33L19.59 2.79C19.69 2.67 19.78 2.53 19.84 2.39C19.91 2.24 19.95 2.09 19.98 1.93C20 1.77 20 1.61 19.98 1.45C19.96 1.29 19.92 1.13 19.86 0.99ZM11.95 9.19C11.67 9.51 11.53 9.89 11.53 10.33L11.53 16.11L8.46 18.33L8.46 10.33C8.46 9.89 8.32 9.51 8.04 9.19L1.53 1.66L18.46 1.66L11.95 9.19Z" fill="#B6C5EE" fill-opacity="1.000000" fill-rule="nonzero"/>
</svg>
