<svg xmlns="http://www.w3.org/2000/svg" shape-rendering="geometricPrecision" text-rendering="geometricPrecision" image-rendering="optimizeQuality" fill-rule="evenodd" clip-rule="evenodd" viewBox="0 0 512 493.03"><path fill="#403176" fill-rule="nonzero" d="M125.195 0h261.61C455.583 0 512 56.416 512 125.195v242.64c0 68.891-56.304 125.195-125.195 125.195h-261.61C56.416 493.03 0 436.614 0 367.835v-242.64C0 56.326 56.349 0 125.195 0z"/><path fill="#403176" d="M125.195 18.969h261.61c58.432 0 106.225 47.816 106.225 106.226v242.64c0 58.409-47.816 106.225-106.225 106.225h-261.61c-58.41 0-106.226-47.793-106.226-106.225v-242.64c0-58.432 47.794-106.226 106.226-106.226z"/><path fill="#403176" d="M141.365 28.465h223.536c58.432 0 111.937 48.466 111.937 106.226v223.671c0 57.759-54.177 106.225-111.937 106.225H141.365c-57.76 0-106.225-47.794-106.225-106.225V134.691c0-58.432 47.793-106.226 106.225-106.226z"/><path fill="#E8FBFD" d="M309.448 28.465h55.453c58.432 0 111.937 48.376 111.937 106.226v36.729c-17.514-.313-9.765-39.215-22.419-66.695-24.927-54.154-81.589-61.388-144.971-76.26z"/><path fill="#fff" fill-rule="nonzero" d="M319.834 202.926l10.184-64.051c.435-3.145 1.209-6.023 2.225-8.515 1.524-3.822 3.774-6.894 6.555-9.119l2.008-1.355c2.588-1.596 5.708-2.66 9.312-3.216 10.861-1.234 19.787-.315 30.502 1.209l8.974 2.419a50.622 50.622 0 019.603 4.378l.339.193c2.927 1.79 5.66 3.846 8.127 6.169l.919.919c3.048 3.12 5.443 6.797 6.991 10.884 1.524 4.113 2.346 8.636 2.346 13.546-1.161 16.182-4.281 28.398-7.789 44.604-8.78 35.799-30.308 129.796-48.715 163.49-3.145 5.08-7.523 8.684-13.038 10.644l-5.975 1.571-6.313.629h-30.816c-3.967 0-7.789-.411-11.272-1.233l-1.21-.339a38.575 38.575 0 01-9.118-3.7c-3.048-1.718-5.685-3.629-7.886-5.588-2.274-2.032-4.475-4.499-6.434-7.233-5.733-8.32-7.692-14.488-10.159-24.067l-4.137-34.009c-2.709 17.923-6.119 36.016-10.401 53.65l-2.564 7.232c-1.378 3.072-3.338 5.806-5.587 7.91-2.443 2.298-5.298 3.991-8.321 5.104l-6.289 1.693-6.434.58h-30.817c-3.749 0-7.377-.435-10.788-1.185a37.235 37.235 0 01-10.28-3.991 42.146 42.146 0 01-13.957-12.892l-4.305-7.378c-18.384-44.531-42.717-155.266-50.603-204.466l-.653-7.571c0-10.111 4.088-17.077 12.167-20.947l.943-.411c2.589-1.089 5.661-1.838 9.168-2.201l10.909-.557 14.102.557c4.185.338 8.175.967 11.925 1.741 3.87.822 7.547 1.911 10.812 3.193 3.653 1.475 6.918 3.193 9.821 5.201a40.453 40.453 0 018.272 7.595 42.564 42.564 0 015.83 9.312c2.757 5.927 4.571 12.941 5.394 20.899 1.016 12.578 2.612 25.301 4.063 37.855l8.273-65.72c.411-3.483 1.814-6.652 3.894-9.409 1.839-2.443 4.161-4.403 6.967-5.878 12.529-6.265 18.383-2.492 29.34-4.693 9.192 0 17.392.581 24.455 1.693 3.894.605 7.547 1.5 10.788 2.589l1.089.411c3.217 1.137 6.119 2.467 8.587 3.943l.991.628c2.758 1.742 5.346 3.75 7.474 5.878l1.113 1.234a42.576 42.576 0 015.394 7.233 62.328 62.328 0 014.233 8.731c6.096 18.625 7.692 34.566 9.772 54.207z"/><path fill="#e07d64" fill-rule="nonzero" d="M315.65 313.661c2.177-11.465 4.112-21.479 5.853-30.018 1.718-8.538 3.242-16.472 4.524-23.826a1610.836 1610.836 0 003.725-21.89c1.209-7.232 2.491-15.336 3.894-24.31 1.403-8.974 3.024-19.254 4.862-30.816 1.838-11.562 4.064-25.446 6.652-41.652.653-4.113 1.741-6.773 3.241-7.959 1.524-1.185 5.297-1.79 11.345-1.79 2.394 0 5.95.17 10.715.484 4.741.339 9.506 1.306 14.271 2.927 4.742 1.621 8.902 4.112 12.482 7.45 3.555 3.362 5.345 8.055 5.345 14.126 0 3.459-.653 8.805-1.935 16.037-1.306 7.257-3.096 15.577-5.37 24.963-2.249 9.409-4.862 19.641-7.764 30.647-2.927 11.03-5.902 22.156-8.926 33.404a1424.497 1424.497 0 01-9.24 32.751c-3.144 10.595-6.047 20.174-8.756 28.712-2.709 8.539-5.128 15.723-7.305 21.552-2.153 5.83-3.677 9.627-4.523 11.345-1.307 2.394-3.145 4.015-5.515 4.862-2.395.87-4.765 1.306-7.136 1.306h-30.816c-5.612 0-10.329-1.089-14.102-3.242-3.773-2.152-6.918-4.982-9.409-8.441-2.468-3.459-4.427-7.329-5.83-11.659a62.221 62.221 0 01-2.757-13.304l-16.207-145.591c-1.306 9.506-2.757 20.198-4.378 32.098a2846.599 2846.599 0 01-5.201 36.307c-1.838 12.336-3.603 24.431-5.345 36.331a1109.444 1109.444 0 01-5.176 32.583c-1.742 9.845-3.363 18.214-4.886 25.132-1.5 6.918-2.806 11.465-3.871 13.618-1.088 2.394-2.83 4.015-5.2 4.862a21.488 21.488 0 01-7.45 1.306h-30.817c-5.394 0-9.893-1.016-13.449-3.072-3.579-2.056-6.554-4.814-8.925-8.272-2.37-3.46-4.33-7.402-5.829-11.853a144.914 144.914 0 01-3.895-13.449c-8.853-35.243-16.061-64.196-21.576-86.91-5.491-22.688-9.869-40.902-13.11-54.641-3.266-13.715-5.467-23.778-6.652-30.139-1.185-6.386-1.79-10.982-1.79-13.788 0-3.676 1.137-6.047 3.411-7.135 2.273-1.089 7.063-1.621 14.416-1.621 9.095 0 16.714.653 22.858 1.935 6.168 1.306 11.2 3.314 15.094 5.999 3.894 2.709 6.869 6.289 8.901 10.715 2.056 4.427 3.411 9.773 4.064 16.037 0 .871.121 2.129.314 3.749.218 1.621.508 4.258.823 7.934.314 3.677.871 8.708 1.62 15.07.75 6.386 1.742 14.876 2.927 25.47a7495.17 7495.17 0 004.524 39.404c1.838 15.674 4.063 34.42 6.652 56.262 2.37-13.207 4.281-23.85 5.684-31.953 1.403-8.103 2.636-15.239 3.725-21.407a737.125 737.125 0 002.927-17.827c.846-5.733 1.886-12.868 3.072-21.407 1.185-8.538 2.588-19.302 4.208-32.267 1.621-12.965 3.726-29.825 6.338-50.578.217-1.524 1.136-2.709 2.757-3.58 1.621-.847 3.604-1.5 5.999-1.935 2.37-.436 5.007-.702 7.934-.823a250.38 250.38 0 018.272-.145c8.636 0 15.989.484 22.06 1.451 6.047.968 11.079 2.661 15.07 5.032a26.975 26.975 0 019.554 9.554c2.395 4.015 4.33 8.926 5.854 14.755.653 2.806 1.403 6.652 2.274 11.514.846 4.862 1.886 12.602 3.072 23.197 1.185 10.594 2.709 25.132 4.547 43.612 1.838 18.48 4.257 42.741 7.281 72.807z"/></svg>