<svg width="39.000000" height="39.000000" viewBox="0 0 39 39" fill="none" xmlns="http://www.w3.org/2000/svg" xmlns:xlink="http://www.w3.org/1999/xlink">
    <desc>
        Created with Pixso.
    </desc>
    <defs/>
    <path id="path" d="M21.75 29.25C21.75 29.54 21.69 29.83 21.57 30.11C21.46 30.38 21.3 30.63 21.09 30.84C20.88 31.05 20.63 31.21 20.36 31.32C20.08 31.44 19.79 31.5 19.5 31.5C19.2 31.5 18.91 31.44 18.63 31.32C18.36 31.21 18.12 31.05 17.9 30.84C17.69 30.63 17.53 30.38 17.42 30.11C17.3 29.83 17.25 29.54 17.25 29.25C17.25 28.95 17.3 28.66 17.42 28.38C17.53 28.11 17.69 27.87 17.9 27.65C18.12 27.44 18.36 27.28 18.63 27.17C18.91 27.05 19.2 27 19.5 27C19.79 27 20.08 27.05 20.36 27.17C20.63 27.28 20.88 27.44 21.09 27.65C21.3 27.87 21.46 28.11 21.57 28.38C21.69 28.66 21.75 28.95 21.75 29.25ZM19.5 9C15.36 9 12 12.02 12 15.75L12 16.5C12 16.69 12.03 16.89 12.11 17.07C12.19 17.25 12.29 17.42 12.43 17.56C12.58 17.7 12.74 17.8 12.92 17.88C13.1 17.96 13.3 18 13.5 18C13.69 18 13.89 17.96 14.07 17.88C14.25 17.8 14.42 17.7 14.56 17.56C14.7 17.42 14.8 17.25 14.88 17.07C14.96 16.89 15 16.69 15 16.5L15 15.75C15 13.68 17.01 12 19.5 12C21.98 12 24 13.68 24 15.75C24 17.81 21.98 19.5 19.5 19.5C19.3 19.5 19.1 19.53 18.92 19.61C18.74 19.69 18.58 19.79 18.43 19.93C18.29 20.08 18.19 20.24 18.11 20.42C18.03 20.6 18 20.8 18 21L18 22.5C18 22.69 18.03 22.89 18.11 23.07C18.19 23.25 18.29 23.42 18.43 23.56C18.58 23.7 18.74 23.8 18.92 23.88C19.1 23.96 19.3 24 19.5 24C19.69 24 19.89 23.96 20.07 23.88C20.25 23.8 20.42 23.7 20.56 23.56C20.7 23.42 20.8 23.25 20.88 23.07C20.96 22.89 21 22.69 21 22.5L21 22.36C24.42 21.73 27 19 27 15.75C27 12.02 23.63 9 19.5 9ZM39 19.5C39 20.13 38.96 20.77 38.9 21.41C38.84 22.04 38.74 22.67 38.62 23.3C38.5 23.93 38.34 24.54 38.16 25.16C37.97 25.77 37.75 26.37 37.51 26.96C37.27 27.55 36.99 28.12 36.69 28.69C36.39 29.25 36.06 29.8 35.71 30.33C35.35 30.86 34.97 31.37 34.57 31.87C34.16 32.36 33.74 32.83 33.28 33.28C32.83 33.74 32.36 34.16 31.87 34.57C31.37 34.97 30.86 35.35 30.33 35.71C29.8 36.06 29.25 36.39 28.69 36.69C28.12 36.99 27.55 37.27 26.96 37.51C26.37 37.75 25.77 37.97 25.16 38.16C24.54 38.34 23.93 38.5 23.3 38.62C22.67 38.74 22.04 38.84 21.41 38.9C20.77 38.96 20.13 39 19.5 39C18.86 39 18.22 38.96 17.58 38.9C16.95 38.84 16.32 38.74 15.69 38.62C15.06 38.5 14.45 38.34 13.83 38.16C13.22 37.97 12.62 37.75 12.03 37.51C11.44 37.27 10.87 36.99 10.3 36.69C9.74 36.39 9.19 36.06 8.66 35.71C8.13 35.35 7.62 34.97 7.12 34.57C6.63 34.16 6.16 33.74 5.71 33.28C5.25 32.83 4.83 32.36 4.42 31.87C4.02 31.37 3.64 30.86 3.28 30.33C2.93 29.8 2.6 29.25 2.3 28.69C2 28.12 1.72 27.55 1.48 26.96C1.23 26.37 1.02 25.77 0.83 25.16C0.65 24.54 0.49 23.93 0.37 23.3C0.25 22.67 0.15 22.04 0.09 21.41C0.03 20.77 0 20.13 0 19.5C0 18.86 0.03 18.22 0.09 17.58C0.15 16.95 0.25 16.32 0.37 15.69C0.49 15.06 0.65 14.45 0.83 13.83C1.02 13.22 1.23 12.62 1.48 12.03C1.72 11.44 2 10.87 2.3 10.3C2.6 9.74 2.93 9.19 3.28 8.66C3.64 8.13 4.02 7.62 4.42 7.12C4.83 6.63 5.25 6.16 5.71 5.71C6.16 5.25 6.63 4.83 7.12 4.42C7.62 4.02 8.13 3.64 8.66 3.28C9.19 2.93 9.74 2.6 10.3 2.3C10.87 2 11.44 1.72 12.03 1.48C12.62 1.23 13.22 1.02 13.83 0.83C14.45 0.65 15.06 0.49 15.69 0.37C16.32 0.25 16.95 0.15 17.58 0.09C18.22 0.03 18.86 0 19.5 0C20.13 0 20.77 0.03 21.41 0.09C22.04 0.15 22.67 0.25 23.3 0.37C23.92 0.5 24.54 0.65 25.15 0.84C25.76 1.03 26.36 1.24 26.95 1.48C27.54 1.73 28.12 2 28.68 2.3C29.25 2.6 29.79 2.93 30.32 3.29C30.85 3.64 31.37 4.02 31.86 4.43C32.35 4.83 32.83 5.26 33.28 5.71C33.73 6.16 34.16 6.64 34.56 7.13C34.97 7.62 35.35 8.14 35.7 8.67C36.06 9.2 36.39 9.74 36.69 10.31C36.99 10.87 37.26 11.45 37.51 12.04C37.75 12.63 37.97 13.23 38.15 13.84C38.34 14.45 38.49 15.07 38.62 15.69C38.74 16.32 38.84 16.95 38.9 17.58C38.96 18.22 38.99 18.86 39 19.5ZM36 19.5C36 18.95 35.97 18.42 35.92 17.88C35.86 17.34 35.78 16.81 35.68 16.28C35.57 15.75 35.44 15.22 35.28 14.71C35.13 14.19 34.95 13.68 34.74 13.18C34.53 12.68 34.3 12.19 34.05 11.72C33.79 11.24 33.51 10.78 33.21 10.33C32.91 9.88 32.59 9.45 32.25 9.03C31.91 8.61 31.54 8.21 31.16 7.83C30.78 7.45 30.38 7.08 29.96 6.74C29.54 6.4 29.11 6.08 28.66 5.78C28.21 5.48 27.75 5.2 27.27 4.94C26.8 4.69 26.31 4.46 25.81 4.25C25.31 4.04 24.8 3.86 24.28 3.71C23.77 3.55 23.24 3.42 22.71 3.31C22.18 3.21 21.65 3.13 21.11 3.07C20.57 3.02 20.04 3 19.5 3C18.95 3 18.42 3.02 17.88 3.07C17.34 3.13 16.81 3.21 16.28 3.31C15.75 3.42 15.22 3.55 14.71 3.71C14.19 3.86 13.68 4.04 13.18 4.25C12.68 4.46 12.19 4.69 11.72 4.94C11.24 5.2 10.78 5.48 10.33 5.78C9.88 6.08 9.45 6.4 9.03 6.74C8.61 7.08 8.21 7.45 7.83 7.83C7.45 8.21 7.08 8.61 6.74 9.03C6.4 9.45 6.08 9.88 5.78 10.33C5.48 10.78 5.2 11.24 4.94 11.72C4.69 12.19 4.46 12.68 4.25 13.18C4.04 13.68 3.86 14.19 3.71 14.71C3.55 15.22 3.42 15.75 3.31 16.28C3.21 16.81 3.13 17.34 3.07 17.88C3.02 18.42 3 18.95 3 19.5C3 20.04 3.02 20.57 3.07 21.11C3.13 21.65 3.21 22.18 3.31 22.71C3.42 23.24 3.55 23.77 3.71 24.28C3.86 24.8 4.04 25.31 4.25 25.81C4.46 26.31 4.69 26.8 4.94 27.27C5.2 27.75 5.48 28.21 5.78 28.66C6.08 29.11 6.4 29.54 6.74 29.96C7.08 30.38 7.45 30.78 7.83 31.16C8.21 31.54 8.61 31.91 9.03 32.25C9.45 32.59 9.88 32.91 10.33 33.21C10.78 33.51 11.24 33.79 11.72 34.05C12.19 34.3 12.68 34.53 13.18 34.74C13.68 34.95 14.19 35.13 14.71 35.28C15.22 35.44 15.75 35.57 16.28 35.68C16.81 35.78 17.34 35.86 17.88 35.92C18.42 35.97 18.95 36 19.5 36C20.04 35.99 20.57 35.97 21.11 35.91C21.65 35.86 22.18 35.78 22.71 35.67C23.24 35.57 23.77 35.44 24.28 35.28C24.8 35.12 25.31 34.94 25.81 34.73C26.31 34.53 26.79 34.3 27.27 34.04C27.75 33.79 28.21 33.51 28.66 33.21C29.11 32.91 29.54 32.59 29.96 32.24C30.38 31.9 30.77 31.54 31.16 31.16C31.54 30.77 31.9 30.38 32.24 29.96C32.59 29.54 32.91 29.11 33.21 28.66C33.51 28.21 33.79 27.75 34.04 27.27C34.3 26.79 34.53 26.31 34.73 25.81C34.94 25.31 35.12 24.8 35.28 24.28C35.44 23.77 35.57 23.24 35.67 22.71C35.78 22.18 35.86 21.65 35.91 21.11C35.97 20.57 35.99 20.04 36 19.5Z" fill="#565B79" fill-opacity="1.000000" fill-rule="nonzero"/>
</svg>
