<svg width="24.000000" height="20.000000" viewBox="0 0 24 20" fill="none" xmlns="http://www.w3.org/2000/svg" xmlns:xlink="http://www.w3.org/1999/xlink">
    <desc>
        Created with Pixso.
    </desc>
    <defs/>
    <path id="path" d="M24 10C24 10.14 23.97 10.28 23.92 10.42C23.87 10.56 23.8 10.68 23.7 10.78C23.61 10.88 23.5 10.97 23.38 11.02C23.26 11.08 23.13 11.11 23 11.11L1 11.11C0.86 11.11 0.73 11.08 0.61 11.02C0.49 10.97 0.38 10.88 0.29 10.78C0.19 10.68 0.12 10.56 0.07 10.42C0.02 10.28 0 10.14 0 10C0 9.85 0.02 9.71 0.07 9.57C0.12 9.43 0.19 9.31 0.29 9.21C0.38 9.11 0.49 9.02 0.61 8.97C0.73 8.91 0.86 8.88 1 8.88L23 8.88C23.13 8.88 23.26 8.91 23.38 8.97C23.5 9.02 23.61 9.11 23.7 9.21C23.8 9.31 23.87 9.43 23.92 9.57C23.97 9.71 24 9.85 24 10ZM1 2.22L23 2.22C23.13 2.22 23.26 2.19 23.38 2.13C23.5 2.08 23.61 2 23.7 1.89C23.8 1.79 23.87 1.67 23.92 1.53C23.97 1.4 24 1.25 24 1.11C24 0.96 23.97 0.82 23.92 0.68C23.87 0.54 23.8 0.42 23.7 0.32C23.61 0.22 23.5 0.14 23.38 0.08C23.26 0.02 23.13 0 23 0L1 0C0.86 0 0.73 0.02 0.61 0.08C0.49 0.14 0.38 0.22 0.29 0.32C0.19 0.42 0.12 0.54 0.07 0.68C0.02 0.82 0 0.96 0 1.11C0 1.25 0.02 1.4 0.07 1.53C0.12 1.67 0.19 1.79 0.29 1.89C0.38 2 0.49 2.08 0.61 2.13C0.73 2.19 0.86 2.22 1 2.22ZM23 17.77L1 17.77C0.86 17.77 0.73 17.8 0.61 17.86C0.49 17.91 0.38 17.99 0.29 18.1C0.19 18.2 0.12 18.32 0.07 18.46C0.02 18.59 0 18.74 0 18.88C0 19.03 0.02 19.17 0.07 19.31C0.12 19.45 0.19 19.57 0.29 19.67C0.38 19.77 0.49 19.85 0.61 19.91C0.73 19.97 0.86 20 1 20L23 20C23.13 20 23.26 19.97 23.38 19.91C23.5 19.85 23.61 19.77 23.7 19.67C23.8 19.57 23.87 19.45 23.92 19.31C23.97 19.17 24 19.03 24 18.88C24 18.74 23.97 18.59 23.92 18.46C23.87 18.32 23.8 18.2 23.7 18.1C23.61 17.99 23.5 17.91 23.38 17.86C23.26 17.8 23.13 17.77 23 17.77Z" fill="#FFFFFF" fill-opacity="1.000000" fill-rule="nonzero"/>
</svg>
