<svg width="39.000000" height="39.000000" viewBox="0 0 39 39" fill="none" xmlns="http://www.w3.org/2000/svg" xmlns:xlink="http://www.w3.org/1999/xlink">
    <desc>
        Created with Pixso.
    </desc>
    <defs/>
    <path id="path" d="M19.5 0C18.86 0 18.22 0.03 17.58 0.09C16.95 0.15 16.32 0.25 15.69 0.37C15.06 0.49 14.45 0.65 13.83 0.83C13.22 1.02 12.62 1.23 12.03 1.48C11.44 1.72 10.87 2 10.3 2.3C9.74 2.6 9.19 2.93 8.66 3.28C8.13 3.64 7.62 4.02 7.12 4.42C6.63 4.83 6.16 5.25 5.71 5.71C5.25 6.16 4.83 6.63 4.42 7.12C4.02 7.62 3.64 8.13 3.28 8.66C2.93 9.19 2.6 9.74 2.3 10.3C2 10.87 1.72 11.44 1.48 12.03C1.23 12.62 1.02 13.22 0.83 13.83C0.65 14.45 0.49 15.06 0.37 15.69C0.25 16.32 0.15 16.95 0.09 17.58C0.03 18.22 0 18.86 0 19.5C0 20.13 0.03 20.77 0.09 21.41C0.15 22.04 0.25 22.67 0.37 23.3C0.49 23.93 0.65 24.54 0.83 25.16C1.02 25.77 1.23 26.37 1.48 26.96C1.72 27.55 2 28.12 2.3 28.69C2.6 29.25 2.93 29.8 3.28 30.33C3.64 30.86 4.02 31.37 4.42 31.87C4.83 32.36 5.25 32.83 5.71 33.28C6.16 33.74 6.63 34.16 7.12 34.57C7.62 34.97 8.13 35.35 8.66 35.71C9.19 36.06 9.74 36.39 10.3 36.69C10.87 36.99 11.44 37.27 12.03 37.51C12.62 37.75 13.22 37.97 13.83 38.16C14.45 38.34 15.06 38.5 15.69 38.62C16.32 38.74 16.95 38.84 17.58 38.9C18.22 38.96 18.86 39 19.5 39C20.13 39 20.77 38.96 21.41 38.9C22.04 38.84 22.67 38.74 23.3 38.62C23.93 38.5 24.54 38.34 25.16 38.16C25.77 37.97 26.37 37.75 26.96 37.51C27.55 37.27 28.12 36.99 28.69 36.69C29.25 36.39 29.8 36.06 30.33 35.71C30.86 35.35 31.37 34.97 31.87 34.57C32.36 34.16 32.83 33.74 33.28 33.28C33.74 32.83 34.16 32.36 34.57 31.87C34.97 31.37 35.35 30.86 35.71 30.33C36.06 29.8 36.39 29.25 36.69 28.69C36.99 28.12 37.27 27.55 37.51 26.96C37.75 26.37 37.97 25.77 38.16 25.16C38.34 24.54 38.5 23.93 38.62 23.3C38.74 22.67 38.84 22.04 38.9 21.41C38.96 20.77 39 20.13 39 19.5C38.99 18.86 38.96 18.22 38.9 17.58C38.84 16.95 38.74 16.32 38.62 15.69C38.49 15.07 38.34 14.45 38.15 13.84C37.97 13.23 37.75 12.63 37.51 12.04C37.26 11.45 36.99 10.87 36.69 10.31C36.39 9.74 36.06 9.2 35.7 8.67C35.35 8.14 34.97 7.62 34.56 7.13C34.16 6.64 33.73 6.16 33.28 5.71C32.83 5.26 32.35 4.83 31.86 4.43C31.37 4.02 30.85 3.64 30.32 3.29C29.79 2.93 29.25 2.6 28.68 2.3C28.12 2 27.54 1.73 26.95 1.48C26.36 1.24 25.76 1.03 25.15 0.84C24.54 0.65 23.92 0.5 23.3 0.37C22.67 0.25 22.04 0.15 21.41 0.09C20.77 0.03 20.13 0 19.5 0ZM9.39 32.53C9.66 32.1 9.95 31.7 10.27 31.31C10.59 30.93 10.94 30.56 11.3 30.22C11.67 29.88 12.06 29.56 12.46 29.27C12.87 28.97 13.29 28.71 13.73 28.47C14.17 28.22 14.63 28.01 15.09 27.83C15.56 27.64 16.03 27.49 16.52 27.37C17.01 27.24 17.5 27.15 18 27.08C18.49 27.02 18.99 26.99 19.5 26.99C20 26.99 20.5 27.02 20.99 27.08C21.49 27.15 21.98 27.24 22.47 27.37C22.96 27.49 23.43 27.64 23.9 27.83C24.36 28.01 24.82 28.22 25.26 28.47C25.7 28.71 26.12 28.97 26.53 29.27C26.93 29.56 27.32 29.88 27.69 30.22C28.05 30.56 28.4 30.93 28.72 31.31C29.04 31.7 29.33 32.1 29.61 32.53C28.89 33.08 28.13 33.58 27.33 34.01C26.53 34.44 25.7 34.81 24.84 35.1C23.98 35.4 23.1 35.62 22.2 35.77C21.31 35.92 20.4 35.99 19.5 35.99C18.59 35.99 17.68 35.92 16.79 35.77C15.89 35.62 15.01 35.4 14.15 35.1C13.29 34.81 12.46 34.44 11.66 34.01C10.86 33.58 10.1 33.08 9.39 32.53ZM13.5 18C13.5 17.6 13.53 17.21 13.61 16.82C13.69 16.44 13.8 16.06 13.95 15.7C14.1 15.33 14.29 14.99 14.51 14.66C14.73 14.33 14.97 14.03 15.25 13.75C15.53 13.47 15.83 13.23 16.16 13.01C16.49 12.79 16.84 12.6 17.2 12.45C17.56 12.3 17.94 12.19 18.32 12.11C18.71 12.03 19.1 12 19.5 12C19.89 12 20.28 12.03 20.67 12.11C21.05 12.19 21.43 12.3 21.79 12.45C22.16 12.6 22.5 12.79 22.83 13.01C23.16 13.23 23.46 13.47 23.74 13.75C24.02 14.03 24.26 14.33 24.48 14.66C24.7 14.99 24.89 15.33 25.04 15.7C25.19 16.06 25.3 16.44 25.38 16.82C25.46 17.21 25.5 17.6 25.5 18C25.5 18.39 25.46 18.78 25.38 19.17C25.3 19.55 25.19 19.93 25.04 20.29C24.89 20.66 24.7 21 24.48 21.33C24.26 21.66 24.02 21.96 23.74 22.24C23.46 22.52 23.16 22.76 22.83 22.98C22.5 23.2 22.16 23.39 21.79 23.54C21.43 23.69 21.05 23.8 20.67 23.88C20.28 23.96 19.89 24 19.5 24C19.1 24 18.71 23.96 18.32 23.88C17.94 23.8 17.56 23.69 17.2 23.54C16.84 23.39 16.49 23.2 16.16 22.98C15.83 22.76 15.53 22.52 15.25 22.24C14.97 21.96 14.73 21.66 14.51 21.33C14.29 21 14.1 20.66 13.95 20.29C13.8 19.93 13.69 19.55 13.61 19.17C13.53 18.78 13.5 18.39 13.5 18ZM31.83 30.45C30.99 29.23 29.99 28.17 28.84 27.25C27.69 26.33 26.43 25.6 25.06 25.06C25.55 24.67 25.99 24.24 26.39 23.77C26.79 23.29 27.14 22.78 27.43 22.23C27.72 21.68 27.96 21.11 28.13 20.52C28.31 19.92 28.42 19.31 28.47 18.69C28.52 18.08 28.5 17.46 28.42 16.84C28.34 16.23 28.2 15.63 28 15.04C27.8 14.45 27.53 13.89 27.22 13.36C26.9 12.83 26.53 12.33 26.1 11.88C25.68 11.42 25.22 11.01 24.71 10.65C24.21 10.29 23.67 9.99 23.1 9.74C22.53 9.49 21.95 9.3 21.34 9.18C20.73 9.05 20.12 8.99 19.5 8.99C18.87 8.99 18.26 9.05 17.65 9.18C17.04 9.3 16.46 9.49 15.89 9.74C15.32 9.99 14.78 10.29 14.28 10.65C13.77 11.01 13.31 11.42 12.89 11.88C12.46 12.33 12.09 12.83 11.77 13.36C11.46 13.89 11.19 14.45 10.99 15.04C10.79 15.63 10.65 16.23 10.57 16.84C10.49 17.46 10.47 18.08 10.52 18.69C10.57 19.31 10.68 19.92 10.86 20.52C11.03 21.11 11.27 21.68 11.56 22.23C11.85 22.78 12.2 23.29 12.6 23.77C13 24.24 13.44 24.67 13.93 25.06C12.56 25.6 11.3 26.33 10.15 27.25C9 28.17 8 29.23 7.17 30.45C6.81 30.05 6.48 29.64 6.17 29.22C5.86 28.79 5.57 28.35 5.3 27.9C5.03 27.45 4.79 26.98 4.56 26.51C4.34 26.03 4.14 25.54 3.96 25.05C3.78 24.55 3.63 24.05 3.5 23.54C3.37 23.02 3.27 22.51 3.19 21.99C3.11 21.47 3.05 20.94 3.02 20.42C2.99 19.89 2.99 19.37 3.01 18.84C3.03 18.31 3.07 17.79 3.14 17.27C3.22 16.74 3.31 16.23 3.43 15.71C3.55 15.2 3.7 14.69 3.87 14.19C4.03 13.7 4.23 13.21 4.44 12.72C4.66 12.24 4.9 11.77 5.16 11.32C5.42 10.86 5.7 10.41 6 9.98C6.31 9.55 6.63 9.14 6.97 8.74C7.32 8.34 7.68 7.95 8.06 7.59C8.44 7.22 8.83 6.88 9.25 6.55C9.66 6.22 10.09 5.92 10.53 5.63C10.97 5.34 11.43 5.08 11.9 4.84C12.36 4.59 12.84 4.37 13.33 4.18C13.82 3.98 14.32 3.81 14.82 3.66C15.33 3.51 15.84 3.38 16.36 3.28C16.87 3.18 17.39 3.11 17.92 3.06C18.44 3.01 18.97 2.98 19.5 2.98C20.02 2.98 20.55 3.01 21.07 3.06C21.6 3.11 22.12 3.18 22.64 3.28C23.15 3.38 23.66 3.51 24.17 3.66C24.67 3.81 25.17 3.98 25.66 4.18C26.15 4.37 26.63 4.59 27.1 4.84C27.56 5.08 28.02 5.34 28.46 5.63C28.9 5.92 29.33 6.22 29.74 6.55C30.16 6.88 30.55 7.22 30.93 7.59C31.31 7.95 31.67 8.34 32.02 8.74C32.36 9.14 32.68 9.55 32.99 9.98C33.29 10.41 33.57 10.86 33.83 11.32C34.09 11.77 34.33 12.24 34.55 12.72C34.76 13.21 34.96 13.7 35.12 14.19C35.29 14.69 35.44 15.2 35.56 15.71C35.68 16.23 35.77 16.74 35.85 17.27C35.92 17.79 35.96 18.31 35.98 18.84C36 19.37 36 19.89 35.97 20.42C35.94 20.94 35.88 21.47 35.8 21.99C35.72 22.51 35.62 23.02 35.49 23.54C35.36 24.05 35.21 24.55 35.03 25.05C34.85 25.54 34.65 26.03 34.43 26.51C34.2 26.98 33.96 27.45 33.69 27.9C33.42 28.35 33.13 28.79 32.82 29.22C32.51 29.64 32.18 30.05 31.83 30.45Z" fill="#565B79" fill-opacity="1.000000" fill-rule="nonzero"/>
</svg>
