<svg width="19.520721" height="19.520721" viewBox="0 0 19.5207 19.5207" fill="none" xmlns="http://www.w3.org/2000/svg" xmlns:xlink="http://www.w3.org/1999/xlink">
    <desc>
        Created with Pixso.
    </desc>
    <defs/>
    <path id="path" d="M19.3 18.24L14.6 13.54C14.71 13.41 14.82 13.27 14.93 13.13C15.03 12.99 15.13 12.84 15.22 12.69C15.32 12.55 15.4 12.4 15.49 12.24C15.57 12.09 15.65 11.93 15.73 11.78C15.8 11.62 15.87 11.46 15.94 11.29C16 11.13 16.06 10.97 16.11 10.8C16.17 10.63 16.22 10.47 16.26 10.3C16.3 10.13 16.34 9.96 16.37 9.78C16.41 9.61 16.43 9.44 16.45 9.26C16.48 9.09 16.49 8.92 16.5 8.74C16.51 8.57 16.52 8.39 16.52 8.22C16.51 8.04 16.51 7.87 16.5 7.69C16.48 7.52 16.47 7.34 16.44 7.17C16.42 7 16.39 6.82 16.36 6.65C16.32 6.48 16.29 6.31 16.24 6.14C16.2 5.97 16.15 5.8 16.09 5.64C16.03 5.47 15.97 5.31 15.91 5.15C15.84 4.98 15.77 4.82 15.7 4.67C15.62 4.51 15.54 4.35 15.45 4.2C15.37 4.05 15.28 3.9 15.18 3.75C15.08 3.61 14.98 3.46 14.88 3.32C14.78 3.18 14.67 3.04 14.55 2.91C14.44 2.78 14.32 2.65 14.2 2.52C14.08 2.4 13.95 2.27 13.82 2.16C13.7 2.04 13.56 1.92 13.43 1.81C13.29 1.7 13.15 1.6 13.01 1.5C12.86 1.4 12.72 1.3 12.57 1.21C12.42 1.12 12.27 1.03 12.11 0.95C11.96 0.87 11.8 0.79 11.64 0.72C11.48 0.65 11.32 0.58 11.15 0.52C10.99 0.46 10.82 0.4 10.66 0.35C10.49 0.3 10.32 0.26 10.15 0.22C9.98 0.18 9.81 0.14 9.64 0.11C9.46 0.08 9.29 0.06 9.12 0.04C8.94 0.02 8.77 0.01 8.59 0C8.42 -0.01 8.24 -0.01 8.07 0C7.89 0 7.72 0.01 7.54 0.03C7.37 0.04 7.2 0.06 7.02 0.09C6.85 0.11 6.68 0.15 6.51 0.18C6.33 0.22 6.17 0.26 6 0.31C5.83 0.36 5.66 0.41 5.5 0.47C5.33 0.53 5.17 0.59 5.01 0.66C4.85 0.73 4.69 0.8 4.53 0.88C4.38 0.96 4.22 1.04 4.07 1.13C3.92 1.22 3.77 1.32 3.63 1.41C3.48 1.51 3.34 1.61 3.2 1.72C3.06 1.83 2.93 1.94 2.8 2.06C2.67 2.17 2.54 2.29 2.41 2.41C2.29 2.54 2.17 2.67 2.06 2.8C1.94 2.93 1.83 3.06 1.72 3.2C1.61 3.34 1.51 3.48 1.41 3.63C1.32 3.77 1.22 3.92 1.13 4.07C1.04 4.22 0.96 4.38 0.88 4.53C0.8 4.69 0.73 4.85 0.66 5.01C0.59 5.17 0.53 5.33 0.47 5.5C0.41 5.66 0.36 5.83 0.31 6C0.26 6.17 0.22 6.33 0.18 6.51C0.15 6.68 0.11 6.85 0.09 7.02C0.06 7.2 0.04 7.37 0.03 7.54C0.01 7.72 0 7.89 0 8.07C-0.01 8.24 -0.01 8.42 0 8.59C0.01 8.77 0.02 8.94 0.04 9.12C0.06 9.29 0.08 9.46 0.11 9.64C0.14 9.81 0.18 9.98 0.22 10.15C0.26 10.32 0.3 10.49 0.35 10.66C0.4 10.82 0.46 10.99 0.52 11.15C0.58 11.32 0.65 11.48 0.72 11.64C0.79 11.8 0.87 11.96 0.95 12.11C1.03 12.27 1.12 12.42 1.21 12.57C1.3 12.72 1.4 12.86 1.5 13.01C1.6 13.15 1.7 13.29 1.81 13.43C1.92 13.56 2.04 13.7 2.16 13.82C2.27 13.95 2.4 14.08 2.52 14.2C2.65 14.32 2.78 14.44 2.91 14.55C3.04 14.67 3.18 14.78 3.32 14.88C3.46 14.98 3.61 15.08 3.75 15.18C3.9 15.28 4.05 15.37 4.2 15.45C4.35 15.54 4.51 15.62 4.67 15.7C4.82 15.77 4.98 15.84 5.15 15.91C5.31 15.97 5.47 16.03 5.64 16.09C5.8 16.15 5.97 16.2 6.14 16.24C6.31 16.29 6.48 16.32 6.65 16.36C6.82 16.39 7 16.42 7.17 16.44C7.34 16.47 7.52 16.48 7.69 16.5C7.87 16.51 8.04 16.51 8.22 16.52C8.39 16.52 8.57 16.51 8.74 16.5C8.92 16.49 9.09 16.48 9.26 16.45C9.44 16.43 9.61 16.41 9.78 16.37C9.96 16.34 10.13 16.3 10.3 16.26C10.47 16.22 10.63 16.17 10.8 16.11C10.97 16.06 11.13 16 11.29 15.94C11.46 15.87 11.62 15.8 11.78 15.73C11.93 15.65 12.09 15.57 12.24 15.49C12.4 15.4 12.55 15.32 12.69 15.22C12.84 15.13 12.99 15.03 13.13 14.93C13.27 14.82 13.41 14.71 13.54 14.6L18.24 19.3C18.31 19.37 18.39 19.42 18.48 19.46C18.57 19.5 18.67 19.52 18.77 19.52C18.87 19.52 18.96 19.5 19.05 19.46C19.14 19.42 19.23 19.37 19.3 19.3C19.37 19.23 19.42 19.14 19.46 19.05C19.5 18.96 19.52 18.87 19.52 18.77C19.52 18.67 19.5 18.57 19.46 18.48C19.42 18.39 19.37 18.31 19.3 18.24ZM1.52 8.27C1.52 8.04 1.53 7.82 1.55 7.6C1.57 7.38 1.6 7.17 1.65 6.95C1.69 6.73 1.74 6.52 1.81 6.31C1.87 6.09 1.94 5.89 2.03 5.68C2.11 5.48 2.21 5.28 2.31 5.08C2.42 4.89 2.53 4.7 2.65 4.52C2.78 4.33 2.91 4.15 3.05 3.98C3.19 3.81 3.34 3.65 3.49 3.49C3.65 3.34 3.81 3.19 3.98 3.05C4.15 2.91 4.33 2.78 4.52 2.65C4.7 2.53 4.89 2.42 5.08 2.31C5.28 2.21 5.48 2.11 5.68 2.03C5.89 1.94 6.09 1.87 6.31 1.81C6.52 1.74 6.73 1.69 6.95 1.65C7.17 1.6 7.38 1.57 7.6 1.55C7.82 1.53 8.04 1.52 8.27 1.52C8.49 1.52 8.71 1.53 8.93 1.55C9.15 1.57 9.37 1.6 9.58 1.65C9.8 1.69 10.01 1.74 10.23 1.81C10.44 1.87 10.64 1.94 10.85 2.03C11.05 2.11 11.25 2.21 11.45 2.31C11.64 2.42 11.83 2.53 12.02 2.65C12.2 2.78 12.38 2.91 12.55 3.05C12.72 3.19 12.88 3.34 13.04 3.49C13.2 3.65 13.34 3.81 13.48 3.98C13.62 4.15 13.76 4.33 13.88 4.52C14 4.7 14.11 4.89 14.22 5.08C14.32 5.28 14.42 5.48 14.5 5.68C14.59 5.89 14.66 6.09 14.73 6.31C14.79 6.52 14.84 6.73 14.89 6.95C14.93 7.17 14.96 7.38 14.98 7.6C15 7.82 15.02 8.04 15.02 8.27C15.02 8.49 15 8.71 14.98 8.93C14.96 9.15 14.93 9.37 14.89 9.58C14.84 9.8 14.79 10.01 14.73 10.23C14.66 10.44 14.59 10.64 14.5 10.85C14.42 11.05 14.32 11.25 14.22 11.45C14.11 11.64 14 11.83 13.88 12.02C13.76 12.2 13.62 12.38 13.48 12.55C13.34 12.72 13.2 12.88 13.04 13.04C12.88 13.2 12.72 13.34 12.55 13.48C12.38 13.62 12.2 13.76 12.02 13.88C11.83 14 11.64 14.11 11.45 14.22C11.25 14.32 11.05 14.42 10.85 14.5C10.64 14.59 10.44 14.66 10.23 14.73C10.01 14.79 9.8 14.84 9.58 14.89C9.37 14.93 9.15 14.96 8.93 14.98C8.71 15 8.49 15.02 8.27 15.02C8.04 15.02 7.82 15 7.6 14.98C7.38 14.96 7.17 14.93 6.95 14.88C6.73 14.84 6.52 14.79 6.31 14.72C6.1 14.66 5.89 14.58 5.68 14.5C5.48 14.42 5.28 14.32 5.09 14.22C4.89 14.11 4.7 14 4.52 13.88C4.33 13.75 4.16 13.62 3.99 13.48C3.81 13.34 3.65 13.19 3.49 13.04C3.34 12.88 3.19 12.72 3.05 12.55C2.91 12.38 2.78 12.2 2.66 12.01C2.53 11.83 2.42 11.64 2.31 11.45C2.21 11.25 2.12 11.05 2.03 10.85C1.95 10.64 1.87 10.44 1.81 10.22C1.74 10.01 1.69 9.8 1.65 9.58C1.6 9.37 1.57 9.15 1.55 8.93C1.53 8.71 1.52 8.49 1.52 8.27Z" fill="#8F8F8F" fill-opacity="1.000000" fill-rule="nonzero"/>
</svg>
