<?xml version="1.0" ?>
<!-- Uploaded to: SVG Repo, www.svgrepo.com, Generator: SVG Repo Mixer Tools -->
<svg width="800px" height="800px" viewBox="0 0 24 24" xmlns="http://www.w3.org/2000/svg">
<defs>
<style>.cls-1{fill:#eae2f9;fill-rule:evenodd;}.cls-2{fill:#f7bf75;}.cls-3{fill:#96ccee;}.cls-4{fill:#f94060;}</style>
</defs>
<g data-name="Structure Organization" id="Structure_Organization">
<path class="cls-1" d="M11.5,8.76v2.58a.5.5,0,0,0,1,0V8.76a.5.5,0,1,0-1,0Z"/>
<path class="cls-1" d="M4.37,11.84v7.44a.5.5,0,0,1-.5.5.5.5,0,0,1-.5-.5V11.34a.51.51,0,0,1,.5-.5H20.13a.51.51,0,0,1,.5.5v2.47a.5.5,0,0,1-.5.5.5.5,0,0,1-.5-.5v-2Z"/>
<path class="cls-1" d="M19.63,15.9v3.38a.5.5,0,0,0,.5.5.5.5,0,0,0,.5-.5V15.9a.5.5,0,0,0-.5-.5A.5.5,0,0,0,19.63,15.9Z"/>
<path class="cls-1" d="M12.5,15.21v4.07a.5.5,0,0,1-1,0V14.71a.5.5,0,0,1,.5-.5h6.6a.5.5,0,0,1,0,1Z"/>
<path class="cls-2" d="M13.4,3.4A1.4,1.4,0,1,1,12,2a1.4,1.4,0,0,1,1.4,1.4"/>
<path class="cls-2" d="M11.94,6.25A2.76,2.76,0,0,0,9.29,8.49a.57.57,0,0,0,.28.58,5,5,0,0,0,4.86,0,.61.61,0,0,0,.27-.65A2.78,2.78,0,0,0,12,6.25Z"/>
<path class="cls-3" d="M5.73,20.15a1.86,1.86,0,1,1-1.86-1.86,1.85,1.85,0,0,1,1.86,1.86"/>
<path class="cls-4" d="M22,14.71a1.86,1.86,0,1,1-1.85-1.85A1.85,1.85,0,0,1,22,14.71"/>
<path class="cls-3" d="M22,20.15a1.86,1.86,0,1,1-1.85-1.86A1.85,1.85,0,0,1,22,20.15"/>
<path class="cls-3" d="M13.85,20.15A1.85,1.85,0,1,1,12,18.29a1.85,1.85,0,0,1,1.85,1.86"/>
</g>
</svg>