<?xml version="1.0" encoding="utf-8"?><!-- Uploaded to: SVG Repo, www.svgrepo.com, Generator: SVG Repo Mixer Tools -->
<svg width="800px" height="800px" viewBox="0 0 48 48" xmlns="http://www.w3.org/2000/svg"><title>70 Basic icons by Xicons.co</title><rect x="22" y="8" width="21" height="22" rx="2" ry="2" fill="#ec5044"/><path d="M24,4H8A3,3,0,0,0,5,7V24a2,2,0,0,0,2,2H24a2,2,0,0,0,2-2V6A2,2,0,0,0,24,4Z" fill="#f3958e"/><path d="M7,48a2,2,0,0,1-2-2V2A2,2,0,0,1,9,2V46A2,2,0,0,1,7,48Z" fill="#c8c8c8"/></svg>