<?xml version="1.0" encoding="utf-8"?><!-- Uploaded to: SVG Repo, www.svgrepo.com, Generator: SVG Repo Mixer Tools -->
<svg width="800px" height="800px" viewBox="0 0 48 48" xmlns="http://www.w3.org/2000/svg"><title>70 Basic icons by Xicons.co</title><path d="M17.58,43a12.88,12.88,0,0,1-8.83-3.88A12.51,12.51,0,0,1,8.6,21.42l2.51-2.62A2,2,0,0,1,14,18.72a2,2,0,0,1,0,2.81l-2.52,2.55a8.71,8.71,0,0,0,.1,12.2,8.83,8.83,0,0,0,6,2.72h0.05a8.72,8.72,0,0,0,6-2.79l2.51-2.7A2,2,0,0,1,29,33.4a1.94,1.94,0,0,1,0,2.79L26.52,39a12.72,12.72,0,0,1-8.86,4H17.58Z" fill="#e85566"/><path d="M35.44,28.88A2,2,0,0,1,34,28.32a2,2,0,0,1,0-2.83l2.52-2.56a8.12,8.12,0,0,0-.1-11.7,8.35,8.35,0,0,0-6-2.23H30.37a8.24,8.24,0,0,0-6,2.3l-2.51,2.45a2,2,0,0,1-2.86,0,2,2,0,0,1,0-2.85l2.52-2.36A12.27,12.27,0,0,1,30.35,5h0.07a12.4,12.4,0,0,1,8.83,3.38,12.21,12.21,0,0,1,.15,17.45l-2.51,2.5A2,2,0,0,1,35.44,28.88Z" fill="#e85566"/><path d="M19.06,30.45a2,2,0,0,1-1.42-.58,2,2,0,0,1,0-2.83l9.87-9.9a2,2,0,0,1,2.86,0,2,2,0,0,1,0,2.83l-9.87,9.9A2,2,0,0,1,19.06,30.45Z" fill="#e85566"/></svg>