<svg width="13.750824" height="7.500986" viewBox="0 0 13.7508 7.50099" fill="none" xmlns="http://www.w3.org/2000/svg" xmlns:xlink="http://www.w3.org/1999/xlink">
    <desc>
        Created with Pixso.
    </desc>
    <defs/>
    <path id="path" d="M13.56 7.31C13.5 7.37 13.44 7.42 13.36 7.45C13.28 7.48 13.2 7.5 13.12 7.5C13.04 7.5 12.96 7.48 12.88 7.45C12.8 7.42 12.74 7.37 12.68 7.31L6.87 1.5L1.06 7.31C1 7.37 0.94 7.42 0.86 7.45C0.78 7.48 0.7 7.5 0.62 7.5C0.54 7.5 0.46 7.48 0.38 7.45C0.3 7.42 0.24 7.37 0.18 7.31C0.12 7.25 0.07 7.19 0.04 7.11C0.01 7.03 0 6.95 0 6.87C0 6.79 0.01 6.71 0.04 6.63C0.07 6.55 0.12 6.49 0.18 6.43L6.43 0.18C6.49 0.12 6.55 0.07 6.63 0.04C6.71 0.01 6.79 0 6.87 0C6.95 0 7.03 0.01 7.11 0.04C7.19 0.07 7.25 0.12 7.31 0.18L13.56 6.43C13.62 6.49 13.67 6.55 13.7 6.63C13.73 6.71 13.75 6.79 13.75 6.87C13.75 6.95 13.73 7.03 13.7 7.11C13.67 7.19 13.62 7.25 13.56 7.31Z" fill="#FFFFFF" fill-opacity="1.000000" fill-rule="nonzero"/>
</svg>
