<svg width="13.000000" height="13.000000" viewBox="0 0 13 13" fill="none" xmlns="http://www.w3.org/2000/svg" xmlns:xlink="http://www.w3.org/1999/xlink">
    <desc>
        Created with Pixso.
    </desc>
    <defs/>
    <path id="path" d="M13 6.5C13 6.57 12.98 6.64 12.95 6.7C12.93 6.77 12.89 6.83 12.84 6.88C12.79 6.93 12.73 6.97 12.66 7C12.59 7.02 12.53 7.04 12.45 7.04L7.04 7.04L7.04 12.45C7.04 12.53 7.02 12.59 7 12.66C6.97 12.73 6.93 12.79 6.88 12.84C6.83 12.89 6.77 12.93 6.7 12.95C6.64 12.98 6.57 13 6.5 13C6.42 13 6.35 12.98 6.29 12.95C6.22 12.93 6.16 12.89 6.11 12.84C6.06 12.79 6.02 12.73 5.99 12.66C5.97 12.59 5.95 12.53 5.95 12.45L5.95 7.04L0.54 7.04C0.46 7.04 0.4 7.02 0.33 7C0.26 6.97 0.2 6.93 0.15 6.88C0.1 6.83 0.06 6.77 0.04 6.7C0.01 6.64 0 6.57 0 6.5C0 6.42 0.01 6.35 0.04 6.29C0.06 6.22 0.1 6.16 0.15 6.11C0.2 6.06 0.26 6.02 0.33 5.99C0.4 5.97 0.46 5.95 0.54 5.95L5.95 5.95L5.95 0.54C5.95 0.46 5.97 0.4 5.99 0.33C6.02 0.26 6.06 0.2 6.11 0.15C6.16 0.1 6.22 0.06 6.29 0.04C6.35 0.01 6.42 0 6.5 0C6.57 0 6.64 0.01 6.7 0.04C6.77 0.06 6.83 0.1 6.88 0.15C6.93 0.2 6.97 0.26 7 0.33C7.02 0.4 7.04 0.46 7.04 0.54L7.04 5.95L12.45 5.95C12.53 5.95 12.59 5.97 12.66 5.99C12.73 6.02 12.79 6.06 12.84 6.11C12.89 6.16 12.93 6.22 12.95 6.29C12.98 6.35 13 6.42 13 6.5Z" fill="#FFFFFF" fill-opacity="1.000000" fill-rule="nonzero"/>
</svg>
