<svg width="20.000000" height="20.000000" viewBox="0 0 20 20" fill="none" xmlns="http://www.w3.org/2000/svg" xmlns:xlink="http://www.w3.org/1999/xlink">
    <desc>
        Created with Pixso.
    </desc>
    <defs/>
    <path id="path" d="M19.02 5.68C19.1 5.87 19.19 6.05 19.26 6.24C19.34 6.43 19.41 6.62 19.48 6.81C19.54 7.01 19.6 7.2 19.65 7.4C19.7 7.6 19.75 7.79 19.79 7.99C19.83 8.19 19.87 8.39 19.9 8.6C19.93 8.8 19.95 9 19.96 9.2C19.98 9.41 19.99 9.61 19.99 9.81C20 10.02 19.99 10.22 19.99 10.42C19.98 10.63 19.96 10.83 19.94 11.03C19.92 11.24 19.89 11.44 19.86 11.64C19.83 11.84 19.79 12.04 19.74 12.24C19.69 12.44 19.64 12.63 19.59 12.83C19.53 13.02 19.46 13.22 19.39 13.41C19.32 13.6 19.25 13.79 19.17 13.98C19.09 14.16 19 14.35 18.91 14.53C18.82 14.71 18.72 14.89 18.61 15.07C18.51 15.24 18.4 15.41 18.29 15.58C18.17 15.75 18.06 15.92 17.93 16.08C17.81 16.24 17.68 16.4 17.55 16.55C17.41 16.71 17.27 16.86 17.13 17C16.99 17.15 16.84 17.29 16.69 17.42C16.54 17.56 16.38 17.69 16.22 17.82C16.06 17.95 15.9 18.07 15.73 18.18C15.57 18.3 15.4 18.41 15.22 18.52C15.05 18.63 14.87 18.73 14.69 18.82C14.51 18.92 14.33 19.01 14.14 19.09C13.96 19.18 13.77 19.26 13.58 19.33C13.39 19.4 13.2 19.47 13 19.53C12.81 19.59 12.61 19.65 12.42 19.7C12.22 19.75 12.02 19.79 11.82 19.83C11.62 19.86 11.42 19.9 11.22 19.92C11.01 19.95 10.81 19.96 10.61 19.98C10.4 19.99 10.2 20 10 20C9.79 20 9.59 19.99 9.39 19.98C9.18 19.96 8.98 19.95 8.78 19.92C8.58 19.9 8.37 19.86 8.17 19.83C7.97 19.79 7.77 19.75 7.58 19.7C7.38 19.65 7.18 19.59 6.99 19.53C6.79 19.47 6.6 19.4 6.41 19.33C6.22 19.26 6.03 19.18 5.85 19.09C5.66 19.01 5.48 18.92 5.3 18.82C5.12 18.73 4.94 18.63 4.77 18.52C4.6 18.41 4.43 18.3 4.26 18.19C4.09 18.07 3.93 17.95 3.77 17.82C3.61 17.69 3.45 17.56 3.3 17.43C3.15 17.29 3 17.15 2.86 17C2.72 16.86 2.58 16.71 2.45 16.55C2.31 16.4 2.18 16.24 2.06 16.08C1.94 15.92 1.82 15.75 1.7 15.58C1.59 15.42 1.48 15.24 1.38 15.07C1.27 14.89 1.18 14.71 1.08 14.53C0.99 14.35 0.9 14.17 0.82 13.98C0.74 13.79 0.67 13.6 0.6 13.41C0.53 13.22 0.46 13.03 0.41 12.83C0.35 12.64 0.3 12.44 0.25 12.24C0.2 12.04 0.17 11.84 0.13 11.64C0.1 11.44 0.07 11.24 0.05 11.04C0.03 10.83 0.01 10.63 0 10.43C0 10.22 -0.01 10.02 0 9.82C0 9.61 0.01 9.41 0.03 9.21C0.04 9 0.06 8.8 0.09 8.6C0.12 8.4 0.16 8.2 0.2 8C0.24 7.8 0.28 7.6 0.34 7.4C0.39 7.2 0.45 7.01 0.51 6.82C0.58 6.62 0.65 6.43 0.73 6.24C0.8 6.05 0.88 5.87 0.97 5.68C1.06 5.5 1.15 5.32 1.25 5.14C1.35 4.96 1.46 4.79 1.56 4.62C1.67 4.44 1.79 4.28 1.91 4.11C2.03 3.95 2.15 3.79 2.28 3.63C2.41 3.47 2.55 3.32 2.69 3.17C2.83 3.02 2.97 2.88 3.12 2.74C3.27 2.6 3.42 2.46 3.57 2.33C3.73 2.2 3.89 2.07 4.05 1.95C4.22 1.83 4.38 1.71 4.56 1.6C4.73 1.49 4.9 1.39 5.08 1.29C5.26 1.19 5.44 1.09 5.62 1C5.8 0.91 5.99 0.83 6.18 0.75C6.37 0.67 6.56 0.6 6.75 0.54C6.94 0.47 7.14 0.41 7.33 0.36C7.53 0.3 7.73 0.25 7.93 0.21C8.13 0.17 8.33 0.13 8.53 0.1C8.73 0.07 8.93 0.05 9.13 0.03C9.34 0.01 9.54 0 9.74 0C9.95 -0.01 10.15 -0.01 10.36 0C10.56 0.01 10.76 0.02 10.96 0.04C11.17 0.06 11.37 0.09 11.57 0.12C11.77 0.15 11.97 0.19 12.17 0.23C12.37 0.28 12.57 0.33 12.76 0.39C12.96 0.44 13.15 0.5 13.34 0.57C13.54 0.64 13.73 0.72 13.91 0.79C14.1 0.87 14.29 0.96 14.47 1.05C14.65 1.14 14.83 1.24 15.01 1.34C15.18 1.44 15.36 1.55 15.53 1.66C15.7 1.78 15.86 1.89 16.02 2.02C16.19 2.14 16.35 2.27 16.5 2.4L18.68 0.22C18.75 0.15 18.83 0.09 18.93 0.05C19.02 0.02 19.12 0 19.22 0C19.32 0 19.42 0.02 19.52 0.06C19.61 0.09 19.69 0.15 19.76 0.22C19.84 0.29 19.89 0.38 19.93 0.47C19.97 0.57 19.99 0.66 19.99 0.77C19.99 0.87 19.97 0.97 19.93 1.06C19.89 1.15 19.84 1.24 19.77 1.31L10.54 10.53C10.47 10.6 10.39 10.66 10.29 10.7C10.2 10.74 10.1 10.76 10 10.76C9.9 10.76 9.8 10.74 9.71 10.7C9.61 10.66 9.53 10.6 9.46 10.53C9.38 10.46 9.33 10.38 9.29 10.28C9.25 10.19 9.23 10.09 9.23 9.99C9.23 9.88 9.25 9.79 9.29 9.69C9.33 9.6 9.38 9.52 9.46 9.44L12.12 6.78C12 6.7 11.88 6.63 11.75 6.56C11.62 6.5 11.49 6.44 11.36 6.39C11.22 6.34 11.09 6.3 10.95 6.26C10.81 6.23 10.67 6.2 10.53 6.18C10.39 6.16 10.24 6.15 10.1 6.14C9.96 6.14 9.82 6.14 9.67 6.16C9.53 6.17 9.39 6.19 9.25 6.22C9.11 6.24 8.97 6.28 8.83 6.32C8.7 6.37 8.56 6.42 8.43 6.48C8.3 6.53 8.18 6.6 8.05 6.67C7.93 6.74 7.81 6.82 7.7 6.91C7.58 6.99 7.47 7.09 7.37 7.18C7.26 7.28 7.17 7.39 7.07 7.49C6.98 7.6 6.89 7.72 6.81 7.84C6.73 7.95 6.66 8.08 6.59 8.2C6.53 8.33 6.47 8.46 6.42 8.59C6.37 8.73 6.32 8.86 6.28 9C6.25 9.14 6.22 9.28 6.2 9.42C6.18 9.56 6.16 9.7 6.16 9.85C6.15 9.99 6.16 10.13 6.17 10.28C6.18 10.42 6.2 10.56 6.22 10.7C6.25 10.84 6.28 10.98 6.33 11.12C6.37 11.25 6.42 11.39 6.48 11.52C6.53 11.65 6.6 11.78 6.67 11.9C6.74 12.02 6.82 12.14 6.9 12.26C6.99 12.37 7.08 12.48 7.17 12.59C7.27 12.69 7.37 12.79 7.48 12.89C7.59 12.98 7.7 13.07 7.82 13.15C7.94 13.23 8.06 13.31 8.19 13.37C8.31 13.44 8.44 13.5 8.57 13.55C8.71 13.61 8.84 13.65 8.98 13.69C9.12 13.73 9.26 13.76 9.4 13.78C9.54 13.8 9.68 13.82 9.82 13.82C9.97 13.83 10.11 13.83 10.25 13.82C10.4 13.81 10.54 13.79 10.68 13.77C10.82 13.74 10.96 13.71 11.1 13.67C11.23 13.63 11.37 13.58 11.5 13.52C11.63 13.47 11.76 13.4 11.88 13.33C12.01 13.26 12.13 13.19 12.24 13.1C12.36 13.02 12.47 12.93 12.58 12.83C12.68 12.74 12.78 12.64 12.88 12.53C12.97 12.42 13.06 12.31 13.14 12.19C13.23 12.08 13.3 11.96 13.37 11.83C13.44 11.7 13.5 11.58 13.55 11.44C13.61 11.31 13.66 11.18 13.69 11.04C13.73 10.9 13.76 10.76 13.79 10.62C13.81 10.48 13.83 10.34 13.84 10.2C13.84 10.05 13.84 9.91 13.84 9.77C13.83 9.66 13.84 9.57 13.88 9.47C13.91 9.37 13.96 9.29 14.03 9.21C14.1 9.13 14.18 9.07 14.27 9.03C14.36 8.99 14.46 8.96 14.56 8.95C14.66 8.95 14.76 8.96 14.86 9C14.95 9.03 15.04 9.08 15.12 9.15C15.19 9.22 15.25 9.3 15.3 9.39C15.34 9.48 15.37 9.58 15.37 9.68C15.38 9.88 15.38 10.08 15.37 10.29C15.36 10.49 15.34 10.69 15.31 10.89C15.27 11.09 15.23 11.29 15.17 11.48C15.11 11.67 15.05 11.87 14.97 12.05C14.89 12.24 14.8 12.42 14.71 12.6C14.61 12.77 14.5 12.95 14.38 13.11C14.26 13.28 14.14 13.43 14 13.58C13.87 13.73 13.72 13.88 13.57 14.01C13.42 14.15 13.26 14.27 13.1 14.39C12.93 14.5 12.76 14.61 12.58 14.71C12.41 14.8 12.22 14.89 12.04 14.97C11.85 15.04 11.66 15.11 11.46 15.17C11.27 15.22 11.07 15.26 10.87 15.3C10.67 15.33 10.47 15.35 10.27 15.36C10.07 15.37 9.86 15.37 9.66 15.36C9.46 15.34 9.26 15.32 9.06 15.28C8.86 15.25 8.66 15.2 8.47 15.15C8.28 15.09 8.09 15.02 7.9 14.94C7.71 14.86 7.53 14.77 7.36 14.67C7.18 14.57 7.01 14.46 6.85 14.35C6.68 14.23 6.53 14.1 6.38 13.96C6.23 13.83 6.09 13.68 5.95 13.53C5.82 13.38 5.69 13.22 5.58 13.05C5.46 12.89 5.36 12.71 5.26 12.53C5.17 12.36 5.08 12.17 5.01 11.99C4.93 11.8 4.87 11.61 4.81 11.41C4.76 11.22 4.72 11.02 4.69 10.82C4.66 10.62 4.64 10.42 4.63 10.21C4.62 10.01 4.62 9.81 4.64 9.61C4.65 9.41 4.68 9.21 4.71 9.01C4.75 8.81 4.8 8.61 4.86 8.42C4.92 8.22 4.99 8.04 5.07 7.85C5.15 7.66 5.24 7.48 5.34 7.31C5.44 7.13 5.55 6.96 5.67 6.8C5.79 6.64 5.92 6.48 6.05 6.33C6.19 6.18 6.34 6.04 6.49 5.91C6.64 5.78 6.8 5.66 6.97 5.54C7.14 5.43 7.31 5.32 7.49 5.23C7.67 5.14 7.85 5.05 8.04 4.98C8.23 4.9 8.42 4.84 8.62 4.79C8.81 4.74 9.01 4.7 9.21 4.67C9.41 4.64 9.61 4.62 9.82 4.61C10.02 4.6 10.22 4.61 10.42 4.63C10.62 4.64 10.82 4.67 11.02 4.71C11.22 4.74 11.42 4.79 11.61 4.85C11.8 4.92 11.99 4.99 12.18 5.07C12.36 5.15 12.54 5.24 12.72 5.34C12.89 5.45 13.06 5.56 13.22 5.68L15.41 3.49C15.14 3.27 14.87 3.07 14.58 2.89C14.29 2.7 13.99 2.53 13.68 2.38C13.37 2.24 13.05 2.11 12.73 2C12.4 1.88 12.07 1.79 11.74 1.72C11.4 1.65 11.06 1.61 10.72 1.58C10.38 1.55 10.03 1.54 9.69 1.55C9.35 1.57 9.01 1.6 8.67 1.66C8.33 1.71 7.99 1.79 7.66 1.88C7.33 1.98 7.01 2.09 6.69 2.23C6.38 2.36 6.07 2.52 5.78 2.69C5.48 2.86 5.19 3.05 4.92 3.26C4.65 3.47 4.38 3.69 4.14 3.93C3.89 4.17 3.66 4.42 3.45 4.69C3.23 4.96 3.03 5.24 2.85 5.53C2.67 5.82 2.5 6.12 2.36 6.43C2.21 6.74 2.09 7.06 1.98 7.39C1.88 7.72 1.79 8.05 1.73 8.38C1.66 8.72 1.62 9.06 1.59 9.4C1.57 9.75 1.57 10.09 1.59 10.43C1.6 10.78 1.64 11.12 1.7 11.45C1.76 11.79 1.84 12.13 1.94 12.46C2.04 12.78 2.16 13.1 2.3 13.42C2.44 13.73 2.6 14.04 2.78 14.33C2.95 14.63 3.15 14.91 3.36 15.18C3.57 15.45 3.8 15.71 4.04 15.95C4.28 16.19 4.54 16.42 4.81 16.63C5.08 16.85 5.36 17.04 5.65 17.22C5.95 17.39 6.25 17.55 6.57 17.69C6.88 17.83 7.2 17.95 7.53 18.06C7.86 18.16 8.19 18.24 8.53 18.3C8.87 18.36 9.21 18.4 9.55 18.42C9.89 18.44 10.23 18.44 10.58 18.41C10.92 18.39 11.26 18.35 11.6 18.28C11.94 18.22 12.27 18.13 12.59 18.03C12.92 17.92 13.24 17.8 13.55 17.65C13.86 17.51 14.17 17.35 14.46 17.17C14.75 16.99 15.03 16.79 15.3 16.57C15.57 16.36 15.82 16.13 16.06 15.88C16.3 15.64 16.52 15.38 16.73 15.1C16.94 14.83 17.13 14.54 17.3 14.25C17.48 13.95 17.63 13.65 17.77 13.33C17.9 13.01 18.02 12.69 18.12 12.36C18.21 12.03 18.29 11.7 18.35 11.36C18.4 11.02 18.44 10.68 18.45 10.34C18.46 9.99 18.46 9.65 18.43 9.31C18.4 8.97 18.35 8.63 18.28 8.29C18.22 7.95 18.13 7.62 18.02 7.3C17.91 6.97 17.78 6.65 17.63 6.34C17.59 6.25 17.56 6.16 17.56 6.05C17.55 5.95 17.56 5.85 17.6 5.76C17.63 5.66 17.68 5.58 17.75 5.5C17.82 5.42 17.9 5.36 17.99 5.32C18.08 5.28 18.18 5.25 18.28 5.25C18.38 5.24 18.48 5.25 18.58 5.29C18.68 5.32 18.76 5.37 18.84 5.44C18.91 5.51 18.97 5.59 19.02 5.68Z" fill="#FFFFFF" fill-opacity="1.000000" fill-rule="nonzero"/>
</svg>
