<svg width="25.005249" height="20.000061" viewBox="0 0 25.0052 20.0001" fill="none" xmlns="http://www.w3.org/2000/svg" xmlns:xlink="http://www.w3.org/1999/xlink">
    <desc>
        Created with Pixso.
    </desc>
    <defs/>
    <path id="path" d="M4.78 0.28C4.71 0.19 4.62 0.13 4.52 0.08C4.42 0.03 4.31 0 4.2 0C4.09 -0.01 3.98 0.01 3.88 0.04C3.77 0.08 3.68 0.14 3.6 0.21C3.52 0.29 3.45 0.37 3.4 0.47C3.36 0.58 3.33 0.68 3.33 0.79C3.32 0.9 3.34 1.01 3.38 1.12C3.42 1.22 3.47 1.31 3.55 1.4L5.55 3.6C1.77 5.92 0.14 9.5 0.07 9.66C-0.03 9.88 -0.03 10.11 0.07 10.33C0.11 10.42 0.99 12.37 2.95 14.33C5.56 16.94 8.87 18.32 12.5 18.32C14.39 18.33 16.19 17.96 17.92 17.19L20.21 19.71C20.29 19.8 20.38 19.86 20.48 19.91C20.58 19.96 20.68 19.99 20.79 19.99C20.9 20 21.01 19.98 21.12 19.95C21.22 19.91 21.32 19.85 21.4 19.78C21.48 19.7 21.55 19.62 21.59 19.52C21.64 19.41 21.67 19.31 21.67 19.2C21.67 19.09 21.66 18.98 21.62 18.87C21.58 18.77 21.52 18.68 21.45 18.59L4.78 0.28ZM9.71 8.17L14.05 12.94C13.73 13.11 13.38 13.23 13.02 13.28C12.65 13.34 12.29 13.34 11.92 13.27C11.56 13.21 11.22 13.09 10.89 12.91C10.57 12.73 10.28 12.51 10.03 12.23C9.79 11.96 9.59 11.66 9.44 11.32C9.29 10.98 9.21 10.62 9.18 10.26C9.15 9.89 9.18 9.53 9.27 9.17C9.36 8.81 9.51 8.48 9.71 8.17ZM12.5 16.66C9.29 16.66 6.49 15.49 4.17 13.2C3.22 12.25 2.41 11.18 1.77 10C2.26 9.08 3.82 6.52 6.7 4.86L8.58 6.91C8.4 7.14 8.24 7.39 8.1 7.64C7.96 7.9 7.85 8.17 7.76 8.45C7.67 8.73 7.6 9.01 7.56 9.3C7.52 9.59 7.51 9.88 7.52 10.17C7.53 10.47 7.57 10.75 7.63 11.04C7.69 11.33 7.78 11.6 7.89 11.87C8 12.15 8.13 12.4 8.29 12.65C8.45 12.9 8.62 13.13 8.82 13.35C9.02 13.56 9.23 13.76 9.46 13.94C9.69 14.12 9.94 14.28 10.2 14.41C10.46 14.55 10.73 14.66 11 14.75C11.28 14.84 11.57 14.9 11.86 14.94C12.15 14.98 12.44 14.99 12.73 14.98C13.02 14.96 13.31 14.93 13.6 14.86C13.88 14.8 14.16 14.71 14.43 14.6C14.7 14.49 14.96 14.35 15.21 14.2L16.74 15.88C15.38 16.41 13.96 16.66 12.5 16.66ZM13.12 6.72C13.01 6.7 12.91 6.66 12.82 6.6C12.73 6.54 12.65 6.46 12.59 6.37C12.53 6.28 12.49 6.18 12.46 6.07C12.44 5.97 12.44 5.86 12.46 5.75C12.48 5.64 12.52 5.54 12.58 5.45C12.64 5.36 12.72 5.28 12.81 5.22C12.9 5.15 13 5.11 13.11 5.09C13.22 5.07 13.33 5.07 13.44 5.09C13.7 5.14 13.96 5.21 14.21 5.3C14.46 5.4 14.71 5.51 14.94 5.64C15.17 5.77 15.4 5.92 15.61 6.09C15.82 6.25 16.01 6.44 16.19 6.64C16.37 6.83 16.54 7.05 16.68 7.27C16.83 7.5 16.96 7.73 17.07 7.98C17.18 8.22 17.27 8.48 17.33 8.74C17.4 8.99 17.45 9.26 17.47 9.53C17.48 9.64 17.47 9.74 17.44 9.85C17.41 9.95 17.36 10.05 17.29 10.13C17.22 10.22 17.13 10.29 17.03 10.34C16.94 10.39 16.83 10.42 16.72 10.43C16.7 10.43 16.67 10.43 16.64 10.43C16.54 10.43 16.44 10.41 16.34 10.38C16.24 10.34 16.16 10.29 16.08 10.22C16 10.15 15.94 10.06 15.9 9.97C15.85 9.88 15.82 9.78 15.81 9.68C15.78 9.32 15.69 8.98 15.54 8.65C15.39 8.32 15.2 8.02 14.96 7.75C14.72 7.49 14.44 7.27 14.12 7.09C13.81 6.91 13.48 6.79 13.12 6.72ZM24.92 10.33C24.88 10.43 23.82 12.77 21.45 14.89C21.37 14.97 21.27 15.03 21.17 15.06C21.06 15.1 20.95 15.12 20.84 15.11C20.73 15.11 20.63 15.08 20.52 15.03C20.42 14.99 20.34 14.92 20.26 14.84C20.19 14.75 20.13 14.66 20.1 14.55C20.06 14.45 20.04 14.34 20.05 14.23C20.06 14.12 20.09 14.01 20.14 13.91C20.19 13.81 20.25 13.73 20.34 13.65C21.51 12.6 22.48 11.38 23.23 10C22.59 8.81 21.78 7.74 20.82 6.79C18.51 4.5 15.7 3.33 12.5 3.33C11.82 3.33 11.15 3.39 10.48 3.5C10.37 3.52 10.26 3.51 10.15 3.49C10.05 3.47 9.95 3.42 9.86 3.36C9.77 3.29 9.69 3.21 9.63 3.12C9.57 3.03 9.53 2.92 9.51 2.81C9.5 2.7 9.5 2.6 9.53 2.49C9.55 2.38 9.6 2.28 9.66 2.19C9.73 2.1 9.81 2.03 9.9 1.97C9.99 1.91 10.1 1.87 10.21 1.85C10.97 1.73 11.73 1.67 12.5 1.67C16.13 1.67 19.43 3.05 22.05 5.66C24.01 7.62 24.89 9.58 24.93 9.66C25.03 9.88 25.02 10.11 24.92 10.33Z" fill="#B6C5EE" fill-opacity="1.000000" fill-rule="nonzero"/>
</svg>
