<svg width="20.000000" height="20.000000" viewBox="0 0 20 20" fill="none" xmlns="http://www.w3.org/2000/svg" xmlns:xlink="http://www.w3.org/1999/xlink">
    <desc>
        Created with Pixso.
    </desc>
    <defs/>
    <path id="path" d="M15.45 19.28C15.45 19.38 15.43 19.47 15.38 19.55C15.33 19.64 15.27 19.72 15.18 19.79C15.1 19.85 15 19.9 14.89 19.94C14.78 19.98 14.66 20 14.54 20L5.45 20C5.33 20 5.21 19.98 5.1 19.94C4.99 19.9 4.89 19.85 4.81 19.79C4.72 19.72 4.66 19.64 4.61 19.55C4.56 19.47 4.54 19.38 4.54 19.28C4.54 19.19 4.56 19.1 4.61 19.01C4.66 18.92 4.72 18.84 4.81 18.78C4.89 18.71 4.99 18.66 5.1 18.62C5.21 18.58 5.33 18.57 5.45 18.57L14.54 18.57C14.66 18.57 14.78 18.58 14.89 18.62C15 18.66 15.1 18.71 15.18 18.78C15.27 18.84 15.33 18.92 15.38 19.01C15.43 19.1 15.45 19.19 15.45 19.28ZM20 7.85C20 8.45 19.91 9.04 19.74 9.62C19.58 10.2 19.33 10.76 18.99 11.29C18.66 11.83 18.26 12.33 17.78 12.79C17.31 13.25 16.77 13.67 16.17 14.03C15.95 14.17 15.77 14.34 15.64 14.54C15.52 14.74 15.45 14.95 15.45 15.17L15.45 15.71C15.45 15.9 15.4 16.08 15.31 16.26C15.22 16.43 15.09 16.59 14.92 16.72C14.75 16.85 14.55 16.96 14.33 17.03C14.1 17.1 13.87 17.14 13.63 17.14L6.36 17.14C6.12 17.14 5.89 17.1 5.66 17.03C5.44 16.96 5.24 16.85 5.07 16.72C4.9 16.59 4.77 16.43 4.68 16.26C4.59 16.08 4.54 15.9 4.54 15.71L4.54 15.17C4.54 14.95 4.48 14.74 4.35 14.54C4.23 14.35 4.06 14.18 3.83 14.04C3.24 13.68 2.7 13.27 2.23 12.81C1.75 12.35 1.34 11.85 1.01 11.32C0.68 10.79 0.43 10.23 0.26 9.65C0.08 9.08 0 8.49 0 7.9C-0.03 3.64 4.34 0.1 9.75 0C10.09 -0.01 10.42 0 10.75 0.02C11.08 0.04 11.41 0.07 11.74 0.12C12.07 0.16 12.39 0.22 12.71 0.29C13.03 0.36 13.35 0.44 13.66 0.54C13.96 0.64 14.27 0.74 14.56 0.86C14.86 0.98 15.15 1.11 15.43 1.25C15.71 1.4 15.97 1.55 16.23 1.71C16.49 1.87 16.74 2.05 16.98 2.23C17.22 2.41 17.45 2.6 17.66 2.8C17.87 3 18.07 3.21 18.26 3.43C18.45 3.64 18.62 3.87 18.78 4.1C18.94 4.33 19.08 4.56 19.21 4.8C19.34 5.04 19.45 5.29 19.55 5.54C19.65 5.79 19.73 6.04 19.8 6.3C19.86 6.55 19.91 6.81 19.95 7.07C19.98 7.33 20 7.59 20 7.85ZM18.18 7.85C18.18 7.64 18.16 7.43 18.14 7.21C18.11 7 18.07 6.79 18.02 6.58C17.96 6.37 17.89 6.16 17.81 5.96C17.73 5.76 17.64 5.55 17.54 5.36C17.43 5.16 17.31 4.97 17.18 4.78C17.05 4.59 16.91 4.41 16.76 4.23C16.6 4.06 16.44 3.89 16.27 3.72C16.09 3.56 15.91 3.4 15.71 3.25C15.52 3.1 15.31 2.96 15.1 2.83C14.89 2.7 14.67 2.57 14.44 2.45C14.21 2.34 13.97 2.23 13.73 2.13C13.49 2.04 13.24 1.95 12.99 1.87C12.74 1.79 12.48 1.72 12.22 1.67C11.95 1.61 11.69 1.56 11.42 1.52C11.15 1.48 10.88 1.46 10.61 1.44C10.34 1.43 10.07 1.42 9.8 1.43C5.37 1.51 1.79 4.41 1.81 7.89C1.82 8.37 1.89 8.85 2.03 9.32C2.17 9.8 2.37 10.25 2.65 10.69C2.92 11.12 3.25 11.53 3.64 11.9C4.03 12.28 4.47 12.62 4.95 12.91C5.4 13.19 5.74 13.52 5.99 13.92C6.24 14.31 6.36 14.73 6.36 15.17L6.36 15.71L9.09 15.71L9.09 11.72L5.72 9.07C5.63 9.01 5.56 8.93 5.52 8.84C5.47 8.75 5.45 8.66 5.45 8.57C5.45 8.47 5.47 8.38 5.52 8.29C5.57 8.21 5.63 8.13 5.72 8.06C5.8 8 5.9 7.94 6.01 7.91C6.12 7.87 6.24 7.85 6.36 7.85C6.48 7.85 6.6 7.87 6.71 7.91C6.82 7.94 6.92 8 7 8.06L10 10.41L12.99 8.06C13.07 8 13.17 7.94 13.28 7.91C13.39 7.87 13.51 7.85 13.63 7.85C13.75 7.85 13.87 7.87 13.98 7.91C14.09 7.94 14.19 8 14.27 8.06C14.36 8.13 14.43 8.21 14.47 8.29C14.52 8.38 14.54 8.47 14.54 8.57C14.54 8.66 14.52 8.75 14.47 8.84C14.43 8.93 14.36 9.01 14.27 9.07L10.9 11.72L10.9 15.71L13.63 15.71L13.63 15.17C13.63 14.73 13.76 14.31 14.01 13.91C14.26 13.52 14.6 13.18 15.05 12.91C15.54 12.61 15.98 12.27 16.37 11.89C16.76 11.51 17.09 11.11 17.36 10.67C17.63 10.23 17.83 9.77 17.97 9.3C18.11 8.82 18.18 8.34 18.18 7.85Z" fill="#FFFFFF" fill-opacity="1.000000" fill-rule="nonzero"/>
</svg>
