<svg width="20.000000" height="20.000000" viewBox="0 0 20 20" fill="none" xmlns="http://www.w3.org/2000/svg" xmlns:xlink="http://www.w3.org/1999/xlink">
    <desc>
        Created with Pixso.
    </desc>
    <defs/>
    <path id="path" d="M10.99 16.07C11.07 16.15 11.13 16.24 11.17 16.34C11.21 16.44 11.23 16.55 11.23 16.66C11.23 16.77 11.21 16.87 11.17 16.98C11.13 17.08 11.07 17.17 10.99 17.25L9.96 18.29C9.68 18.56 9.39 18.8 9.07 19.01C8.75 19.23 8.42 19.41 8.06 19.55C7.71 19.7 7.34 19.81 6.97 19.88C6.59 19.96 6.21 20 5.83 20C5.45 19.99 5.07 19.96 4.69 19.88C4.31 19.81 3.95 19.7 3.6 19.55C3.24 19.4 2.91 19.22 2.59 19.01C2.27 18.8 1.97 18.56 1.7 18.28C1.43 18.01 1.19 17.72 0.98 17.4C0.76 17.08 0.58 16.75 0.44 16.39C0.29 16.04 0.18 15.67 0.11 15.3C0.03 14.92 -0.01 14.54 0 14.16C0 13.78 0.03 13.4 0.11 13.02C0.18 12.65 0.29 12.28 0.44 11.93C0.59 11.57 0.77 11.24 0.98 10.92C1.19 10.6 1.43 10.3 1.71 10.03L4.22 7.52C4.48 7.26 4.76 7.03 5.07 6.82C5.37 6.61 5.69 6.44 6.03 6.29C6.37 6.15 6.72 6.03 7.08 5.95C7.44 5.87 7.8 5.83 8.17 5.82C8.54 5.81 8.9 5.83 9.27 5.89C9.63 5.95 9.99 6.04 10.33 6.16C10.68 6.29 11.01 6.45 11.33 6.64C11.64 6.82 11.94 7.04 12.22 7.29C12.3 7.36 12.36 7.45 12.41 7.54C12.46 7.64 12.49 7.75 12.5 7.86C12.5 7.97 12.49 8.08 12.45 8.18C12.42 8.29 12.36 8.38 12.29 8.46C12.21 8.55 12.13 8.61 12.03 8.66C11.93 8.71 11.82 8.74 11.71 8.74C11.6 8.75 11.49 8.74 11.39 8.7C11.28 8.66 11.19 8.61 11.11 8.53C10.91 8.36 10.7 8.21 10.47 8.07C10.25 7.94 10.01 7.82 9.76 7.73C9.52 7.64 9.26 7.58 9 7.54C8.74 7.5 8.48 7.48 8.22 7.49C7.96 7.49 7.7 7.53 7.44 7.58C7.18 7.64 6.93 7.72 6.69 7.83C6.45 7.93 6.22 8.06 6 8.2C5.78 8.35 5.58 8.52 5.4 8.7L2.88 11.21C2.69 11.41 2.52 11.62 2.37 11.84C2.21 12.07 2.09 12.31 1.98 12.56C1.88 12.82 1.8 13.08 1.74 13.35C1.69 13.61 1.66 13.88 1.66 14.16C1.66 14.43 1.69 14.7 1.74 14.97C1.8 15.24 1.88 15.5 1.98 15.75C2.09 16.01 2.21 16.25 2.37 16.47C2.52 16.7 2.69 16.91 2.88 17.1C3.08 17.3 3.29 17.47 3.52 17.62C3.74 17.77 3.98 17.9 4.24 18.01C4.49 18.11 4.75 18.19 5.02 18.24C5.29 18.3 5.56 18.32 5.83 18.32C6.1 18.32 6.37 18.3 6.64 18.24C6.91 18.19 7.17 18.11 7.42 18.01C7.68 17.9 7.92 17.77 8.14 17.62C8.37 17.47 8.58 17.3 8.78 17.1L9.81 16.07C9.89 15.99 9.98 15.93 10.08 15.89C10.18 15.85 10.29 15.82 10.4 15.82C10.51 15.82 10.62 15.85 10.72 15.89C10.82 15.93 10.91 15.99 10.99 16.07ZM18.29 1.7C18.02 1.43 17.72 1.19 17.4 0.98C17.09 0.76 16.75 0.58 16.4 0.44C16.04 0.29 15.68 0.18 15.3 0.11C14.93 0.03 14.55 0 14.16 0C13.78 0 13.4 0.03 13.03 0.11C12.65 0.18 12.29 0.29 11.93 0.44C11.58 0.58 11.24 0.76 10.92 0.98C10.6 1.19 10.31 1.43 10.04 1.7L9 2.74C8.93 2.81 8.87 2.9 8.82 3.01C8.78 3.11 8.76 3.22 8.76 3.33C8.76 3.44 8.78 3.54 8.82 3.64C8.87 3.75 8.93 3.84 9 3.91C9.08 3.99 9.17 4.05 9.27 4.1C9.38 4.14 9.48 4.16 9.59 4.16C9.7 4.16 9.81 4.14 9.91 4.09C10.01 4.05 10.1 3.99 10.18 3.91L11.22 2.88C11.41 2.69 11.62 2.51 11.85 2.36C12.08 2.21 12.32 2.08 12.57 1.98C12.82 1.87 13.08 1.79 13.35 1.74C13.62 1.69 13.89 1.66 14.16 1.66C14.44 1.66 14.71 1.69 14.98 1.74C15.24 1.79 15.5 1.87 15.76 1.98C16.01 2.08 16.25 2.21 16.48 2.36C16.7 2.51 16.91 2.69 17.11 2.88C17.3 3.07 17.47 3.28 17.63 3.51C17.78 3.74 17.91 3.98 18.01 4.23C18.12 4.48 18.19 4.74 18.25 5.01C18.3 5.28 18.33 5.55 18.33 5.83C18.33 6.1 18.3 6.37 18.25 6.64C18.2 6.91 18.12 7.17 18.01 7.42C17.91 7.67 17.78 7.91 17.63 8.14C17.48 8.37 17.3 8.58 17.11 8.77L14.6 11.28C14.41 11.47 14.21 11.64 13.99 11.78C13.77 11.93 13.54 12.06 13.3 12.16C13.06 12.27 12.81 12.35 12.55 12.4C12.3 12.46 12.04 12.49 11.77 12.5C11.51 12.51 11.25 12.49 10.99 12.45C10.73 12.41 10.48 12.34 10.23 12.25C9.98 12.16 9.75 12.05 9.52 11.91C9.29 11.78 9.08 11.62 8.89 11.45C8.8 11.38 8.71 11.32 8.6 11.29C8.5 11.25 8.39 11.23 8.28 11.24C8.17 11.25 8.07 11.27 7.97 11.32C7.87 11.37 7.78 11.44 7.71 11.52C7.63 11.6 7.58 11.7 7.54 11.8C7.51 11.91 7.49 12.01 7.5 12.12C7.5 12.24 7.53 12.34 7.58 12.44C7.63 12.54 7.69 12.63 7.78 12.7C8.05 12.94 8.35 13.16 8.67 13.35C8.98 13.54 9.31 13.7 9.66 13.82C10.01 13.95 10.36 14.04 10.73 14.1C11.09 14.16 11.46 14.18 11.82 14.17C12.19 14.16 12.56 14.11 12.92 14.03C13.28 13.95 13.62 13.84 13.96 13.7C14.3 13.55 14.62 13.37 14.93 13.17C15.23 12.96 15.52 12.72 15.78 12.46L18.29 9.95C18.56 9.68 18.8 9.39 19.01 9.07C19.23 8.75 19.41 8.41 19.55 8.06C19.7 7.71 19.81 7.34 19.88 6.97C19.96 6.59 20 6.21 20 5.83C20 5.44 19.96 5.07 19.88 4.69C19.81 4.31 19.7 3.95 19.55 3.6C19.41 3.24 19.23 2.91 19.01 2.59C18.8 2.27 18.56 1.97 18.29 1.7Z" fill="#B6C5EE" fill-opacity="1.000000" fill-rule="nonzero"/>
</svg>
