<svg width="20.000000" height="20.000000" viewBox="0 0 20 20" fill="none" xmlns="http://www.w3.org/2000/svg" xmlns:xlink="http://www.w3.org/1999/xlink">
    <desc>
        Created with Pixso.
    </desc>
    <defs/>
    <path id="path" d="M14.16 19.23C14.16 19.33 14.14 19.43 14.1 19.52C14.06 19.61 13.99 19.7 13.92 19.77C13.84 19.84 13.75 19.9 13.65 19.94C13.54 19.98 13.44 20 13.33 20L6.66 20C6.55 20 6.44 19.98 6.34 19.94C6.24 19.9 6.15 19.84 6.07 19.77C5.99 19.7 5.93 19.61 5.89 19.52C5.85 19.43 5.83 19.33 5.83 19.23C5.83 19.12 5.85 19.03 5.89 18.93C5.93 18.84 5.99 18.75 6.07 18.68C6.15 18.61 6.24 18.55 6.34 18.52C6.44 18.48 6.55 18.46 6.66 18.46L13.33 18.46C13.44 18.46 13.54 18.48 13.65 18.52C13.75 18.55 13.84 18.61 13.92 18.68C13.99 18.75 14.06 18.84 14.1 18.93C14.14 19.03 14.16 19.12 14.16 19.23ZM19.77 16.15C19.62 16.39 19.42 16.58 19.16 16.71C18.9 16.85 18.63 16.92 18.33 16.92L1.66 16.92C1.36 16.92 1.08 16.85 0.83 16.71C0.57 16.57 0.36 16.38 0.22 16.15C0.07 15.91 -0.01 15.65 0 15.37C0 15.1 0.07 14.84 0.22 14.6C0.8 13.69 1.66 11.09 1.66 7.69C1.66 7.44 1.67 7.18 1.7 6.93C1.73 6.68 1.77 6.43 1.82 6.19C1.87 5.94 1.94 5.7 2.02 5.45C2.1 5.21 2.19 4.98 2.29 4.74C2.4 4.51 2.51 4.28 2.64 4.06C2.77 3.84 2.91 3.62 3.06 3.41C3.22 3.2 3.38 3 3.55 2.81C3.72 2.61 3.91 2.43 4.1 2.25C4.29 2.07 4.5 1.9 4.71 1.74C4.92 1.58 5.14 1.43 5.36 1.29C5.59 1.15 5.82 1.02 6.07 0.9C6.31 0.78 6.55 0.68 6.8 0.58C7.06 0.48 7.31 0.4 7.57 0.33C7.84 0.25 8.1 0.19 8.37 0.14C8.64 0.09 8.91 0.06 9.18 0.03C9.45 0.01 9.72 0 9.99 0C10.27 0 10.54 0.01 10.81 0.03C11.08 0.06 11.35 0.09 11.62 0.14C11.89 0.19 12.15 0.25 12.41 0.33C12.67 0.4 12.93 0.48 13.18 0.58C13.44 0.68 13.68 0.78 13.92 0.9C14.16 1.02 14.4 1.15 14.62 1.29C14.85 1.43 15.07 1.58 15.28 1.74C15.49 1.9 15.69 2.07 15.89 2.25C16.08 2.43 16.26 2.61 16.44 2.81C16.61 3 16.77 3.2 16.92 3.41C17.07 3.62 17.22 3.84 17.34 4.06C17.47 4.28 17.59 4.51 17.69 4.74C17.8 4.98 17.89 5.21 17.97 5.45C18.05 5.7 18.11 5.94 18.17 6.19C18.22 6.43 18.26 6.68 18.29 6.93C18.31 7.18 18.33 7.44 18.33 7.69C18.33 11.08 19.19 13.69 19.77 14.6C19.92 14.84 19.99 15.1 20 15.38C20 15.65 19.92 15.91 19.77 16.15ZM18.33 15.38C17.52 14.1 16.66 11.15 16.66 7.69C16.66 7.28 16.62 6.88 16.53 6.49C16.45 6.09 16.32 5.71 16.15 5.33C15.99 4.96 15.78 4.6 15.54 4.27C15.29 3.93 15.02 3.62 14.71 3.34C14.4 3.05 14.06 2.8 13.7 2.57C13.33 2.35 12.95 2.16 12.55 2C12.14 1.85 11.72 1.73 11.29 1.65C10.87 1.57 10.43 1.53 9.99 1.53C9.56 1.53 9.12 1.57 8.69 1.65C8.26 1.73 7.85 1.85 7.44 2C7.04 2.16 6.65 2.35 6.29 2.57C5.93 2.8 5.59 3.05 5.28 3.34C4.97 3.62 4.69 3.93 4.45 4.27C4.21 4.6 4 4.96 3.83 5.33C3.67 5.71 3.54 6.09 3.45 6.49C3.37 6.88 3.33 7.28 3.33 7.69C3.33 11.15 2.46 14.1 1.66 15.38L18.33 15.38Z" fill="#FFFFFF" fill-opacity="1.000000" fill-rule="nonzero"/>
</svg>
