<svg width="20.000244" height="20.000122" viewBox="0 0 20.0002 20.0001" fill="none" xmlns="http://www.w3.org/2000/svg" xmlns:xlink="http://www.w3.org/1999/xlink">
    <desc>
        Created with Pixso.
    </desc>
    <defs/>
    <path id="path" d="M19.88 18.78C18.42 16.15 16.16 14.26 13.53 13.37C13.75 13.23 13.96 13.09 14.16 12.93C14.36 12.78 14.55 12.61 14.73 12.43C14.91 12.25 15.09 12.06 15.25 11.87C15.41 11.67 15.56 11.46 15.7 11.25C15.85 11.03 15.98 10.81 16.09 10.58C16.21 10.35 16.32 10.11 16.41 9.87C16.5 9.63 16.59 9.39 16.65 9.13C16.72 8.88 16.78 8.63 16.82 8.37C16.86 8.12 16.89 7.86 16.9 7.6C16.91 7.34 16.92 7.08 16.9 6.82C16.89 6.56 16.86 6.3 16.82 6.04C16.78 5.78 16.73 5.53 16.66 5.28C16.6 5.03 16.52 4.78 16.43 4.54C16.33 4.3 16.23 4.06 16.11 3.83C16 3.6 15.87 3.38 15.73 3.16C15.59 2.95 15.44 2.74 15.27 2.54C15.11 2.34 14.94 2.15 14.76 1.97C14.58 1.79 14.39 1.62 14.19 1.47C13.99 1.31 13.78 1.16 13.57 1.03C13.35 0.89 13.13 0.77 12.9 0.66C12.68 0.55 12.44 0.46 12.21 0.37C11.97 0.29 11.73 0.22 11.48 0.16C11.24 0.11 10.99 0.07 10.74 0.04C10.5 0.01 10.25 0 10 0C9.74 0 9.49 0.01 9.25 0.04C9 0.07 8.75 0.11 8.51 0.16C8.26 0.22 8.02 0.29 7.78 0.37C7.55 0.46 7.31 0.55 7.09 0.66C6.86 0.77 6.64 0.89 6.42 1.03C6.21 1.16 6 1.31 5.8 1.47C5.6 1.62 5.41 1.79 5.23 1.97C5.05 2.15 4.88 2.34 4.72 2.54C4.55 2.74 4.4 2.95 4.26 3.16C4.12 3.38 3.99 3.6 3.88 3.83C3.76 4.06 3.66 4.3 3.56 4.54C3.47 4.78 3.39 5.03 3.33 5.28C3.26 5.53 3.21 5.78 3.17 6.04C3.13 6.3 3.1 6.56 3.09 6.82C3.07 7.08 3.08 7.34 3.09 7.6C3.1 7.86 3.13 8.12 3.17 8.37C3.21 8.63 3.27 8.88 3.34 9.13C3.4 9.39 3.49 9.63 3.58 9.87C3.67 10.11 3.78 10.35 3.9 10.58C4.01 10.81 4.14 11.03 4.29 11.25C4.43 11.46 4.58 11.67 4.74 11.87C4.91 12.06 5.08 12.25 5.26 12.43C5.44 12.61 5.63 12.78 5.83 12.93C6.03 13.09 6.24 13.23 6.46 13.37C3.83 14.26 1.57 16.15 0.11 18.78C0.05 18.87 0.02 18.97 0 19.08C-0.01 19.18 -0.01 19.29 0.02 19.39C0.04 19.5 0.09 19.59 0.15 19.68C0.21 19.76 0.29 19.83 0.38 19.89C0.47 19.94 0.57 19.98 0.67 19.99C0.77 20 0.87 19.99 0.97 19.96C1.07 19.94 1.16 19.89 1.24 19.82C1.32 19.75 1.39 19.67 1.44 19.58C3.25 16.32 6.45 14.38 10 14.38C13.54 14.38 16.74 16.32 18.55 19.58C18.6 19.67 18.67 19.75 18.75 19.82C18.83 19.89 18.92 19.94 19.02 19.96C19.12 19.99 19.22 20 19.32 19.99C19.42 19.98 19.52 19.94 19.61 19.89C19.7 19.83 19.78 19.76 19.84 19.68C19.9 19.59 19.95 19.5 19.97 19.39C20 19.29 20 19.18 19.99 19.08C19.97 18.97 19.94 18.87 19.88 18.78ZM4.62 7.19C4.62 6.82 4.65 6.46 4.72 6.1C4.79 5.74 4.89 5.39 5.03 5.05C5.16 4.71 5.33 4.39 5.52 4.08C5.72 3.78 5.94 3.49 6.19 3.23C6.44 2.97 6.71 2.74 7.01 2.54C7.3 2.33 7.61 2.16 7.94 2.02C8.26 1.88 8.6 1.78 8.95 1.7C9.29 1.63 9.64 1.6 10 1.6C10.35 1.6 10.7 1.63 11.04 1.7C11.39 1.78 11.73 1.88 12.05 2.02C12.38 2.16 12.69 2.33 12.98 2.54C13.28 2.74 13.55 2.97 13.8 3.23C14.05 3.49 14.27 3.78 14.47 4.08C14.66 4.39 14.83 4.71 14.97 5.05C15.1 5.39 15.2 5.74 15.27 6.1C15.34 6.46 15.37 6.82 15.37 7.19C15.37 7.56 15.34 7.92 15.27 8.28C15.2 8.64 15.1 8.99 14.97 9.33C14.83 9.67 14.66 9.99 14.47 10.3C14.27 10.6 14.05 10.89 13.8 11.15C13.55 11.41 13.28 11.64 12.98 11.84C12.69 12.05 12.38 12.22 12.05 12.36C11.73 12.5 11.39 12.61 11.04 12.68C10.7 12.75 10.35 12.78 10 12.78C9.64 12.78 9.29 12.75 8.95 12.68C8.6 12.6 8.26 12.5 7.94 12.36C7.61 12.22 7.3 12.04 7.01 11.84C6.71 11.64 6.44 11.4 6.19 11.14C5.94 10.88 5.72 10.6 5.52 10.3C5.33 9.99 5.16 9.67 5.03 9.33C4.89 8.99 4.79 8.64 4.72 8.28C4.65 7.92 4.62 7.56 4.62 7.19Z" fill="#B6C5EE" fill-opacity="1.000000" fill-rule="nonzero"/>
</svg>
