<svg width="20.000000" height="14.000000" viewBox="0 0 20 14" fill="none" xmlns="http://www.w3.org/2000/svg" xmlns:xlink="http://www.w3.org/1999/xlink">
    <desc>
        Created with Pixso.
    </desc>
    <defs/>
    <path id="path" d="M16.42 7C16.42 7.13 16.41 7.26 16.37 7.38C16.33 7.5 16.28 7.61 16.21 7.7C16.15 7.8 16.07 7.87 15.98 7.92C15.9 7.97 15.8 8 15.71 8L4.28 8C4.19 8 4.09 7.97 4.01 7.92C3.92 7.87 3.84 7.8 3.78 7.7C3.71 7.61 3.66 7.5 3.62 7.38C3.58 7.26 3.57 7.13 3.57 7C3.57 6.86 3.58 6.73 3.62 6.61C3.66 6.49 3.71 6.38 3.78 6.29C3.84 6.19 3.92 6.12 4.01 6.07C4.09 6.02 4.19 6 4.28 6L15.71 6C15.8 6 15.9 6.02 15.98 6.07C16.07 6.12 16.15 6.19 16.21 6.29C16.28 6.38 16.33 6.49 16.37 6.61C16.41 6.73 16.42 6.86 16.42 7ZM19.28 0L0.71 0C0.61 0 0.52 0.02 0.44 0.07C0.35 0.12 0.27 0.19 0.2 0.29C0.14 0.38 0.09 0.49 0.05 0.61C0.01 0.73 0 0.86 0 1C0 1.13 0.01 1.26 0.05 1.38C0.09 1.5 0.14 1.61 0.2 1.7C0.27 1.8 0.35 1.87 0.44 1.92C0.52 1.97 0.61 2 0.71 2L19.28 2C19.38 2 19.47 1.97 19.55 1.92C19.64 1.87 19.72 1.8 19.79 1.7C19.85 1.61 19.9 1.5 19.94 1.38C19.98 1.26 20 1.13 20 1C20 0.86 19.98 0.73 19.94 0.61C19.9 0.49 19.85 0.38 19.79 0.29C19.72 0.19 19.64 0.12 19.55 0.07C19.47 0.02 19.38 0 19.28 0ZM12.14 12L7.85 12C7.76 12 7.67 12.02 7.58 12.07C7.49 12.12 7.41 12.19 7.35 12.29C7.28 12.38 7.23 12.49 7.19 12.61C7.16 12.73 7.14 12.86 7.14 13C7.14 13.13 7.16 13.26 7.19 13.38C7.23 13.5 7.28 13.61 7.35 13.7C7.41 13.8 7.49 13.87 7.58 13.92C7.67 13.97 7.76 14 7.85 14L12.14 14C12.23 14 12.32 13.97 12.41 13.92C12.5 13.87 12.58 13.8 12.64 13.7C12.71 13.61 12.76 13.5 12.8 13.38C12.83 13.26 12.85 13.13 12.85 13C12.85 12.86 12.83 12.73 12.8 12.61C12.76 12.49 12.71 12.38 12.64 12.29C12.58 12.19 12.5 12.12 12.41 12.07C12.32 12.02 12.23 12 12.14 12Z" fill="#B6C5EE" fill-opacity="1.000000" fill-rule="nonzero"/>
</svg>
