<svg width="20.000000" height="20.000000" viewBox="0 0 20 20" fill="none" xmlns="http://www.w3.org/2000/svg" xmlns:xlink="http://www.w3.org/1999/xlink">
    <desc>
        Created with Pixso.
    </desc>
    <defs/>
    <path id="path" d="M20 2.85L20 1.42C20 1.23 19.96 1.05 19.88 0.88C19.8 0.7 19.69 0.55 19.54 0.41C19.4 0.28 19.23 0.18 19.05 0.1C18.86 0.03 18.66 0 18.46 0L1.53 0C1.33 0 1.13 0.03 0.94 0.1C0.76 0.18 0.59 0.28 0.45 0.41C0.3 0.55 0.19 0.7 0.11 0.88C0.03 1.05 0 1.23 0 1.42L0 2.85C0 3.04 0.03 3.22 0.11 3.4C0.19 3.57 0.3 3.73 0.45 3.86C0.59 4 0.76 4.1 0.94 4.17C1.13 4.24 1.33 4.28 1.53 4.28L1.53 12.85L0.76 12.85C0.66 12.85 0.56 12.87 0.47 12.91C0.38 12.94 0.29 12.99 0.22 13.06C0.15 13.13 0.09 13.21 0.05 13.29C0.01 13.38 0 13.47 0 13.57C0 13.66 0.01 13.75 0.05 13.84C0.09 13.93 0.15 14 0.22 14.07C0.29 14.14 0.38 14.19 0.47 14.23C0.56 14.26 0.66 14.28 0.76 14.28L9.23 14.28L9.23 15.83C9.06 15.89 8.89 15.96 8.74 16.05C8.59 16.14 8.45 16.25 8.33 16.37C8.2 16.49 8.1 16.62 8 16.77C7.91 16.91 7.84 17.06 7.79 17.23C7.74 17.39 7.7 17.55 7.69 17.72C7.68 17.88 7.69 18.05 7.72 18.21C7.75 18.38 7.8 18.54 7.87 18.69C7.94 18.85 8.03 18.99 8.14 19.13C8.25 19.26 8.37 19.38 8.51 19.49C8.65 19.6 8.8 19.69 8.96 19.77C9.12 19.84 9.29 19.9 9.46 19.94C9.64 19.98 9.81 20 10 20C10.18 20 10.35 19.98 10.53 19.94C10.7 19.9 10.87 19.84 11.03 19.77C11.2 19.69 11.34 19.6 11.48 19.49C11.62 19.38 11.74 19.26 11.85 19.13C11.96 18.99 12.05 18.85 12.12 18.69C12.19 18.54 12.24 18.38 12.27 18.21C12.3 18.05 12.31 17.88 12.3 17.72C12.29 17.55 12.25 17.39 12.2 17.23C12.15 17.06 12.08 16.91 11.99 16.77C11.89 16.62 11.79 16.49 11.66 16.37C11.54 16.25 11.4 16.14 11.25 16.05C11.1 15.96 10.93 15.89 10.76 15.83L10.76 14.28L19.23 14.28C19.33 14.28 19.43 14.26 19.52 14.23C19.61 14.19 19.7 14.14 19.77 14.07C19.84 14 19.9 13.93 19.94 13.84C19.98 13.75 20 13.66 20 13.57C20 13.47 19.98 13.38 19.94 13.29C19.9 13.21 19.84 13.13 19.77 13.06C19.7 12.99 19.61 12.94 19.52 12.91C19.43 12.87 19.33 12.85 19.23 12.85L18.46 12.85L18.46 4.28C18.66 4.28 18.86 4.24 19.05 4.17C19.23 4.1 19.4 4 19.54 3.86C19.69 3.73 19.8 3.57 19.88 3.4C19.96 3.22 20 3.04 20 2.85ZM10 18.57C9.89 18.57 9.79 18.55 9.7 18.51C9.61 18.48 9.52 18.42 9.45 18.36C9.38 18.29 9.32 18.21 9.28 18.12C9.25 18.04 9.23 17.95 9.23 17.85C9.23 17.76 9.25 17.67 9.28 17.58C9.32 17.49 9.38 17.41 9.45 17.35C9.52 17.28 9.61 17.23 9.7 17.19C9.79 17.16 9.89 17.14 10 17.14C10.1 17.14 10.2 17.16 10.29 17.19C10.38 17.23 10.47 17.28 10.54 17.35C10.61 17.41 10.67 17.49 10.71 17.58C10.74 17.67 10.76 17.76 10.76 17.85C10.76 17.95 10.74 18.04 10.71 18.12C10.67 18.21 10.61 18.29 10.54 18.36C10.47 18.42 10.38 18.48 10.29 18.51C10.2 18.55 10.1 18.57 10 18.57ZM1.53 1.42L18.46 1.42L18.46 2.85L1.53 2.85L1.53 1.42ZM16.92 12.85L3.07 12.85L3.07 4.28L16.92 4.28L16.92 12.85Z" fill="#B6C5EE" fill-opacity="1.000000" fill-rule="nonzero"/>
</svg>
