<svg width="20.000000" height="20.000000" viewBox="0 0 20 20" fill="none" xmlns="http://www.w3.org/2000/svg" xmlns:xlink="http://www.w3.org/1999/xlink">
    <desc>
        Created with Pixso.
    </desc>
    <defs/>
    <path id="path" d="M14.75 6.91C14.83 6.98 14.89 7.07 14.93 7.18C14.97 7.28 15 7.38 15 7.5C15 7.61 14.97 7.71 14.93 7.81C14.89 7.92 14.83 8.01 14.75 8.08L8.92 13.92C8.84 14 8.75 14.06 8.65 14.1C8.55 14.14 8.44 14.16 8.33 14.16C8.22 14.16 8.11 14.14 8.01 14.1C7.91 14.06 7.82 14 7.74 13.92L5.24 11.42C5.16 11.34 5.1 11.25 5.06 11.15C5.02 11.05 4.99 10.94 4.99 10.83C4.99 10.72 5.02 10.61 5.06 10.51C5.1 10.41 5.16 10.32 5.24 10.24C5.32 10.16 5.41 10.1 5.51 10.06C5.61 10.02 5.72 9.99 5.83 9.99C5.94 9.99 6.05 10.02 6.15 10.06C6.25 10.1 6.34 10.16 6.42 10.24L8.33 12.15L13.57 6.91C13.65 6.83 13.74 6.77 13.84 6.72C13.94 6.68 14.05 6.66 14.16 6.66C14.27 6.66 14.38 6.68 14.48 6.72C14.58 6.77 14.67 6.83 14.75 6.91ZM20 1.66L20 18.33C20 18.55 19.95 18.76 19.87 18.97C19.78 19.17 19.66 19.35 19.51 19.51C19.35 19.66 19.17 19.78 18.97 19.87C18.76 19.95 18.55 20 18.33 20L1.66 20C1.44 20 1.23 19.95 1.02 19.87C0.82 19.78 0.64 19.66 0.48 19.51C0.33 19.35 0.21 19.17 0.12 18.97C0.04 18.76 0 18.55 0 18.33L0 1.66C0 1.44 0.04 1.23 0.12 1.02C0.21 0.82 0.33 0.64 0.48 0.48C0.64 0.33 0.82 0.21 1.02 0.12C1.23 0.04 1.44 0 1.66 0L18.33 0C18.55 0 18.76 0.04 18.97 0.12C19.17 0.21 19.35 0.33 19.51 0.48C19.66 0.64 19.78 0.82 19.87 1.02C19.95 1.23 20 1.44 20 1.66ZM18.33 18.33L18.33 1.66L1.66 1.66L1.66 18.33L18.33 18.33Z" fill="#FFFFFF" fill-opacity="1.000000" fill-rule="nonzero"/>
</svg>
