<svg width="60.000000" height="36.000000" viewBox="0 0 60 36" fill="none" xmlns="http://www.w3.org/2000/svg" xmlns:xlink="http://www.w3.org/1999/xlink">
    <desc>
        Created with Pixso.
    </desc>
    <defs/>
    <path id="path" d="M42 0L18 0C17.41 0 16.82 0.02 16.23 0.08C15.64 0.14 15.06 0.23 14.48 0.34C13.91 0.46 13.33 0.6 12.77 0.77C12.21 0.94 11.65 1.14 11.11 1.37C10.56 1.59 10.03 1.84 9.51 2.12C8.99 2.4 8.48 2.7 7.99 3.03C7.5 3.36 7.03 3.71 6.58 4.08C6.12 4.45 5.68 4.85 5.27 5.27C4.85 5.68 4.45 6.12 4.08 6.58C3.71 7.03 3.36 7.5 3.03 7.99C2.7 8.48 2.4 8.99 2.12 9.51C1.84 10.03 1.59 10.56 1.37 11.11C1.14 11.65 0.94 12.21 0.77 12.77C0.6 13.33 0.46 13.91 0.34 14.48C0.23 15.06 0.14 15.64 0.08 16.23C0.02 16.82 0 17.41 0 18C0 18.58 0.02 19.17 0.08 19.76C0.14 20.35 0.23 20.93 0.34 21.51C0.46 22.08 0.6 22.66 0.77 23.22C0.94 23.78 1.14 24.34 1.37 24.88C1.59 25.43 1.84 25.96 2.12 26.48C2.4 27 2.7 27.51 3.03 28C3.36 28.49 3.71 28.96 4.08 29.41C4.45 29.87 4.85 30.31 5.27 30.72C5.68 31.14 6.12 31.54 6.58 31.91C7.03 32.28 7.5 32.63 7.99 32.96C8.48 33.29 8.99 33.59 9.51 33.87C10.03 34.15 10.56 34.4 11.11 34.62C11.65 34.85 12.21 35.05 12.77 35.22C13.33 35.39 13.91 35.53 14.48 35.65C15.06 35.76 15.64 35.85 16.23 35.91C16.82 35.97 17.41 36 18 36L42 36C42.58 36 43.17 35.97 43.76 35.91C44.35 35.85 44.93 35.76 45.51 35.65C46.08 35.53 46.66 35.39 47.22 35.22C47.78 35.05 48.34 34.85 48.88 34.62C49.43 34.4 49.96 34.15 50.48 33.87C51 33.59 51.51 33.29 52 32.96C52.49 32.63 52.96 32.28 53.41 31.91C53.87 31.54 54.31 31.14 54.72 30.72C55.14 30.31 55.54 29.87 55.91 29.41C56.28 28.96 56.63 28.49 56.96 28C57.29 27.51 57.59 27 57.87 26.48C58.15 25.96 58.4 25.43 58.62 24.88C58.85 24.34 59.05 23.78 59.22 23.22C59.39 22.66 59.53 22.08 59.65 21.51C59.76 20.93 59.85 20.35 59.91 19.76C59.97 19.17 60 18.58 60 18C60 17.41 59.97 16.82 59.91 16.23C59.85 15.64 59.76 15.06 59.65 14.48C59.53 13.91 59.39 13.33 59.22 12.77C59.05 12.21 58.85 11.65 58.62 11.11C58.4 10.56 58.15 10.03 57.87 9.51C57.59 8.99 57.29 8.48 56.96 7.99C56.63 7.5 56.28 7.03 55.91 6.58C55.54 6.12 55.14 5.68 54.72 5.27C54.31 4.85 53.87 4.45 53.41 4.08C52.96 3.71 52.49 3.36 52 3.03C51.51 2.7 51 2.4 50.48 2.12C49.96 1.84 49.43 1.59 48.88 1.37C48.34 1.14 47.78 0.94 47.22 0.77C46.66 0.6 46.08 0.46 45.51 0.34C44.93 0.23 44.35 0.14 43.76 0.08C43.17 0.02 42.58 0 42 0ZM42 32L18 32C17.08 32 16.17 31.91 15.26 31.73C14.36 31.55 13.49 31.28 12.64 30.93C11.79 30.58 10.98 30.15 10.22 29.64C9.45 29.12 8.75 28.54 8.1 27.89C7.45 27.24 6.87 26.54 6.35 25.77C5.84 25.01 5.41 24.2 5.06 23.35C4.71 22.5 4.44 21.63 4.26 20.73C4.08 19.82 4 18.91 4 18C4 17.08 4.08 16.17 4.26 15.26C4.44 14.36 4.71 13.49 5.06 12.64C5.41 11.79 5.84 10.98 6.35 10.22C6.87 9.45 7.45 8.75 8.1 8.1C8.75 7.45 9.45 6.87 10.22 6.35C10.98 5.84 11.79 5.41 12.64 5.06C13.49 4.71 14.36 4.44 15.26 4.26C16.17 4.08 17.08 4 18 4L42 4C42.91 4 43.82 4.08 44.73 4.26C45.63 4.44 46.5 4.71 47.35 5.06C48.2 5.41 49.01 5.84 49.77 6.35C50.54 6.87 51.24 7.45 51.89 8.1C52.54 8.75 53.12 9.45 53.64 10.22C54.15 10.98 54.58 11.79 54.93 12.64C55.28 13.49 55.55 14.36 55.73 15.26C55.91 16.17 56 17.08 56 18C56 18.91 55.91 19.82 55.73 20.73C55.55 21.63 55.28 22.5 54.93 23.35C54.58 24.2 54.15 25.01 53.64 25.77C53.12 26.54 52.54 27.24 51.89 27.89C51.24 28.54 50.54 29.12 49.77 29.64C49.01 30.15 48.2 30.58 47.35 30.93C46.5 31.28 45.63 31.55 44.73 31.73C43.82 31.91 42.91 32 42 32ZM18 8C17.34 8 16.69 8.06 16.04 8.19C15.4 8.32 14.77 8.5 14.17 8.76C13.56 9.01 12.99 9.32 12.44 9.68C11.89 10.05 11.39 10.46 10.92 10.92C10.46 11.39 10.05 11.89 9.68 12.44C9.32 12.99 9.01 13.56 8.76 14.17C8.5 14.77 8.32 15.4 8.19 16.04C8.06 16.69 8 17.34 8 18C8 18.65 8.06 19.3 8.19 19.95C8.32 20.59 8.5 21.22 8.76 21.82C9.01 22.43 9.32 23 9.68 23.55C10.05 24.1 10.46 24.6 10.92 25.07C11.39 25.53 11.89 25.94 12.44 26.31C12.99 26.67 13.56 26.98 14.17 27.23C14.77 27.49 15.4 27.67 16.04 27.8C16.69 27.93 17.34 28 18 28C18.65 28 19.3 27.93 19.95 27.8C20.59 27.67 21.22 27.49 21.82 27.23C22.43 26.98 23 26.67 23.55 26.31C24.1 25.94 24.6 25.53 25.07 25.07C25.53 24.6 25.95 24.1 26.31 23.55C26.67 23 26.98 22.43 27.23 21.82C27.49 21.22 27.67 20.59 27.8 19.95C27.93 19.3 28 18.65 28 18C28 17.34 27.93 16.69 27.8 16.04C27.67 15.4 27.49 14.77 27.23 14.17C26.98 13.56 26.67 12.99 26.31 12.44C25.95 11.89 25.53 11.39 25.07 10.92C24.6 10.46 24.1 10.05 23.55 9.68C23 9.32 22.43 9.01 21.82 8.76C21.22 8.5 20.59 8.32 19.95 8.19C19.3 8.06 18.65 8 18 8ZM18 24C17.6 24 17.21 23.96 16.82 23.88C16.44 23.8 16.06 23.69 15.7 23.54C15.34 23.39 14.99 23.2 14.66 22.98C14.33 22.76 14.03 22.52 13.75 22.24C13.47 21.96 13.23 21.66 13.01 21.33C12.79 21 12.6 20.66 12.45 20.29C12.3 19.93 12.19 19.55 12.11 19.17C12.03 18.78 12 18.39 12 18C12 17.6 12.03 17.21 12.11 16.82C12.19 16.44 12.3 16.06 12.45 15.7C12.6 15.33 12.79 14.99 13.01 14.66C13.23 14.33 13.47 14.03 13.75 13.75C14.03 13.47 14.33 13.23 14.66 13.01C14.99 12.79 15.34 12.6 15.7 12.45C16.06 12.3 16.44 12.19 16.82 12.11C17.21 12.03 17.6 12 18 12C18.39 12 18.78 12.03 19.17 12.11C19.55 12.19 19.93 12.3 20.29 12.45C20.66 12.6 21 12.79 21.33 13.01C21.66 13.23 21.96 13.47 22.24 13.75C22.52 14.03 22.76 14.33 22.98 14.66C23.2 14.99 23.39 15.33 23.54 15.7C23.69 16.06 23.8 16.44 23.88 16.82C23.96 17.21 24 17.6 24 18C24 18.39 23.96 18.78 23.88 19.17C23.8 19.55 23.69 19.93 23.54 20.29C23.39 20.66 23.2 21 22.98 21.33C22.76 21.66 22.52 21.96 22.24 22.24C21.96 22.52 21.66 22.76 21.33 22.98C21 23.2 20.66 23.39 20.29 23.54C19.93 23.69 19.55 23.8 19.17 23.88C18.78 23.96 18.39 24 18 24Z" fill="#565B79" fill-opacity="1.000000" fill-rule="nonzero"/>
</svg>
